<svg width="1165" height="1034" viewBox="0 0 1165 1034" fill="none" xmlns="http://www.w3.org/2000/svg">
<rect width="1165" height="1034" fill="#F5F5F5"/>
<rect x="975" y="57" width="70" height="631" fill="#D9D9D9"/>
<path d="M974.5 545.5V617.5H897.5V545.5H974.5Z" fill="#D9D9D9" stroke="black"/>
<path d="M937.057 588V579.273H940.006C940.688 579.273 941.247 579.389 941.685 579.622C942.122 579.852 942.446 580.169 942.656 580.572C942.866 580.976 942.972 581.435 942.972 581.949C942.972 582.463 942.866 582.919 942.656 583.317C942.446 583.714 942.124 584.027 941.689 584.254C941.254 584.479 940.699 584.591 940.023 584.591H937.636V583.636H939.989C940.455 583.636 940.83 583.568 941.114 583.432C941.401 583.295 941.608 583.102 941.736 582.852C941.866 582.599 941.932 582.298 941.932 581.949C941.932 581.599 941.866 581.294 941.736 581.033C941.605 580.771 941.396 580.57 941.109 580.428C940.822 580.283 940.443 580.21 939.972 580.21H938.114V588H937.057ZM941.165 584.08L943.312 588H942.085L939.972 584.08H941.165ZM944.733 579.273H945.994L948.96 586.517H949.062L952.028 579.273H953.289V588H952.301V581.369H952.216L949.488 588H948.534L945.806 581.369H945.721V588H944.733V579.273ZM958.05 588.119C957.465 588.119 956.948 588.016 956.499 587.808C956.053 587.598 955.705 587.31 955.455 586.943C955.205 586.574 955.082 586.153 955.085 585.682C955.082 585.312 955.154 584.972 955.302 584.659C955.45 584.344 955.651 584.081 955.907 583.871C956.165 583.658 956.454 583.523 956.772 583.466V583.415C956.354 583.307 956.022 583.072 955.775 582.712C955.528 582.348 955.406 581.935 955.408 581.472C955.406 581.028 955.518 580.632 955.745 580.283C955.972 579.933 956.285 579.658 956.683 579.456C957.083 579.254 957.539 579.153 958.05 579.153C958.556 579.153 959.008 579.254 959.406 579.456C959.803 579.658 960.116 579.933 960.343 580.283C960.573 580.632 960.69 581.028 960.692 581.472C960.69 581.935 960.563 582.348 960.313 582.712C960.066 583.072 959.738 583.307 959.329 583.415V583.466C959.644 583.523 959.928 583.658 960.181 583.871C960.434 584.081 960.636 584.344 960.786 584.659C960.937 584.972 961.013 585.312 961.016 585.682C961.013 586.153 960.886 586.574 960.633 586.943C960.383 587.31 960.035 587.598 959.589 587.808C959.146 588.016 958.633 588.119 958.05 588.119ZM958.05 587.182C958.445 587.182 958.786 587.118 959.073 586.99C959.36 586.862 959.582 586.682 959.738 586.449C959.894 586.216 959.974 585.943 959.977 585.631C959.974 585.301 959.888 585.01 959.721 584.757C959.553 584.504 959.325 584.305 959.035 584.161C958.748 584.016 958.42 583.943 958.05 583.943C957.678 583.943 957.346 584.016 957.053 584.161C956.763 584.305 956.535 584.504 956.367 584.757C956.202 585.01 956.121 585.301 956.124 585.631C956.121 585.943 956.197 586.216 956.35 586.449C956.506 586.682 956.729 586.862 957.019 586.99C957.309 587.118 957.653 587.182 958.05 587.182ZM958.05 583.04C958.363 583.04 958.64 582.977 958.881 582.852C959.126 582.727 959.317 582.553 959.457 582.328C959.596 582.104 959.667 581.841 959.67 581.54C959.667 581.244 959.597 580.987 959.461 580.768C959.325 580.547 959.136 580.376 958.894 580.257C958.653 580.135 958.371 580.074 958.05 580.074C957.724 580.074 957.438 580.135 957.194 580.257C956.95 580.376 956.761 580.547 956.627 580.768C956.494 580.987 956.428 581.244 956.431 581.54C956.428 581.841 956.495 582.104 956.631 582.328C956.771 582.553 956.962 582.727 957.207 582.852C957.451 582.977 957.732 583.04 958.05 583.04Z" fill="black"/>
<path d="M77.5 688.5V760.5H0.5V688.5H77.5Z" fill="#D9D9D9" stroke="black"/>
<path d="M77.5 688.5V760.5H0.5V688.5H77.5Z" fill="#D9D9D9" stroke="black"/>
<path d="M233.5 688.5V760.5H156.5V688.5H233.5Z" fill="#D9D9D9" stroke="black"/>
<path d="M382.5 688.5V760.5H305.5V688.5H382.5Z" fill="#D9D9D9" stroke="black"/>
<path d="M950.5 688.5V760.5H873.5V688.5H950.5Z" fill="#D9D9D9" stroke="black"/>
<path d="M1044.5 762.5V834.5H967.5V762.5H1044.5Z" fill="#D9D9D9" stroke="black"/>
<path d="M1044.5 689.5V761.5H967.5V689.5H1044.5Z" fill="#D9D9D9" stroke="black"/>
<path d="M872.5 688.5V760.5H795.5V688.5H872.5Z" fill="#D9D9D9" stroke="black"/>
<path d="M831.057 735V726.273H834.006C834.688 726.273 835.247 726.389 835.685 726.622C836.122 726.852 836.446 727.169 836.656 727.572C836.866 727.976 836.972 728.435 836.972 728.949C836.972 729.463 836.866 729.919 836.656 730.317C836.446 730.714 836.124 731.027 835.689 731.254C835.254 731.479 834.699 731.591 834.023 731.591H831.636V730.636H833.989C834.455 730.636 834.83 730.568 835.114 730.432C835.401 730.295 835.608 730.102 835.736 729.852C835.866 729.599 835.932 729.298 835.932 728.949C835.932 728.599 835.866 728.294 835.736 728.033C835.605 727.771 835.396 727.57 835.109 727.428C834.822 727.283 834.443 727.21 833.972 727.21H832.114V735H831.057ZM835.165 731.08L837.312 735H836.085L833.972 731.08H835.165ZM838.733 726.273H839.994L842.96 733.517H843.062L846.028 726.273H847.289V735H846.301V728.369H846.216L843.488 735H842.534L839.806 728.369H839.721V735H838.733V726.273ZM849.05 733.21V732.341L852.886 726.273H853.516V727.619H853.09L850.192 732.205V732.273H855.357V733.21H849.05ZM853.158 735V732.946V732.541V726.273H854.164V735H853.158Z" fill="black"/>
<path d="M923.057 734V725.273H926.006C926.688 725.273 927.247 725.389 927.685 725.622C928.122 725.852 928.446 726.169 928.656 726.572C928.866 726.976 928.972 727.435 928.972 727.949C928.972 728.463 928.866 728.919 928.656 729.317C928.446 729.714 928.124 730.027 927.689 730.254C927.254 730.479 926.699 730.591 926.023 730.591H923.636V729.636H925.989C926.455 729.636 926.83 729.568 927.114 729.432C927.401 729.295 927.608 729.102 927.736 728.852C927.866 728.599 927.932 728.298 927.932 727.949C927.932 727.599 927.866 727.294 927.736 727.033C927.605 726.771 927.396 726.57 927.109 726.428C926.822 726.283 926.443 726.21 925.972 726.21H924.114V734H923.057ZM927.165 730.08L929.312 734H928.085L925.972 730.08H927.165ZM930.733 725.273H931.994L934.96 732.517H935.062L938.028 725.273H939.289V734H938.301V727.369H938.216L935.488 734H934.534L931.806 727.369H931.721V734H930.733V725.273ZM944.153 734.119C943.795 734.114 943.437 734.045 943.079 733.915C942.721 733.784 942.394 733.564 942.099 733.254C941.803 732.942 941.566 732.52 941.387 731.989C941.208 731.455 941.119 730.784 941.119 729.977C941.119 729.205 941.191 728.52 941.336 727.923C941.481 727.324 941.691 726.82 941.967 726.411C942.242 725.999 942.575 725.686 942.964 725.473C943.356 725.26 943.798 725.153 944.289 725.153C944.778 725.153 945.212 725.251 945.593 725.447C945.977 725.641 946.289 725.911 946.531 726.257C946.772 726.604 946.928 727.003 946.999 727.455H945.96C945.863 727.062 945.675 726.737 945.397 726.479C945.119 726.22 944.749 726.091 944.289 726.091C943.613 726.091 943.08 726.385 942.691 726.973C942.305 727.561 942.11 728.386 942.107 729.449H942.175C942.335 729.207 942.523 729.001 942.742 728.831C942.964 728.658 943.208 728.524 943.475 728.43C943.742 728.337 944.025 728.29 944.323 728.29C944.823 728.29 945.281 728.415 945.695 728.665C946.11 728.912 946.442 729.254 946.692 729.692C946.942 730.126 947.067 730.625 947.067 731.188C947.067 731.727 946.947 732.222 946.705 732.67C946.464 733.116 946.124 733.472 945.687 733.736C945.252 733.997 944.741 734.125 944.153 734.119ZM944.153 733.182C944.511 733.182 944.832 733.092 945.116 732.913C945.403 732.734 945.629 732.494 945.793 732.193C945.961 731.892 946.045 731.557 946.045 731.188C946.045 730.827 945.964 730.499 945.802 730.203C945.643 729.905 945.423 729.668 945.141 729.491C944.863 729.315 944.545 729.227 944.187 729.227C943.917 729.227 943.665 729.281 943.433 729.389C943.2 729.494 942.995 729.639 942.819 729.824C942.646 730.009 942.509 730.22 942.41 730.459C942.31 730.695 942.261 730.943 942.261 731.205C942.261 731.551 942.342 731.875 942.504 732.176C942.668 732.477 942.893 732.72 943.177 732.905C943.464 733.089 943.789 733.182 944.153 733.182Z" fill="black"/>
<path d="M311.5 688.5V760.5H234.5V688.5H311.5Z" fill="#D9D9D9" stroke="black"/>
<path d="M77.5 688.5V760.5H0.5V688.5H77.5Z" fill="#D9D9D9" stroke="black"/>
<path d="M155.5 688.5V760.5H78.5V688.5H155.5Z" fill="#D9D9D9" stroke="black"/>
<path d="M974.5 107.5V179.5H897.5V107.5H974.5Z" fill="#D9D9D9" stroke="black"/>
<path d="M974.5 180.5V252.5H897.5V180.5H974.5Z" fill="#D9D9D9" stroke="black"/>
<path d="M974.5 253.5V325.5H897.5V253.5H974.5Z" fill="#D9D9D9" stroke="black"/>
<path d="M974.5 326.5V398.5H897.5V326.5H974.5Z" fill="#D9D9D9" stroke="black"/>
<path d="M974.5 399.5V471.5H897.5V399.5H974.5Z" fill="#D9D9D9" stroke="black"/>
<path d="M923.057 448V439.273H926.006C926.688 439.273 927.247 439.389 927.685 439.622C928.122 439.852 928.446 440.169 928.656 440.572C928.866 440.976 928.972 441.435 928.972 441.949C928.972 442.463 928.866 442.919 928.656 443.317C928.446 443.714 928.124 444.027 927.689 444.254C927.254 444.479 926.699 444.591 926.023 444.591H923.636V443.636H925.989C926.455 443.636 926.83 443.568 927.114 443.432C927.401 443.295 927.608 443.102 927.736 442.852C927.866 442.599 927.932 442.298 927.932 441.949C927.932 441.599 927.866 441.294 927.736 441.033C927.605 440.771 927.396 440.57 927.109 440.428C926.822 440.283 926.443 440.21 925.972 440.21H924.114V448H923.057ZM927.165 444.08L929.312 448H928.085L925.972 444.08H927.165ZM930.733 439.273H931.994L934.96 446.517H935.062L938.028 439.273H939.289V448H938.301V441.369H938.216L935.488 448H934.534L931.806 441.369H931.721V448H930.733V439.273ZM944.323 439.273V448H943.266V440.381H943.215L941.085 441.795V440.722L943.266 439.273H944.323ZM949.68 448.119C949.038 448.119 948.491 447.945 948.039 447.595C947.587 447.243 947.242 446.733 947.004 446.065C946.765 445.395 946.646 444.585 946.646 443.636C946.646 442.693 946.765 441.888 947.004 441.22C947.245 440.55 947.592 440.038 948.043 439.686C948.498 439.331 949.043 439.153 949.68 439.153C950.316 439.153 950.86 439.331 951.312 439.686C951.766 440.038 952.113 440.55 952.352 441.22C952.593 441.888 952.714 442.693 952.714 443.636C952.714 444.585 952.594 445.395 952.356 446.065C952.117 446.733 951.772 447.243 951.32 447.595C950.869 447.945 950.322 448.119 949.68 448.119ZM949.68 447.182C950.316 447.182 950.81 446.875 951.163 446.261C951.515 445.648 951.691 444.773 951.691 443.636C951.691 442.881 951.61 442.237 951.448 441.706C951.289 441.175 951.059 440.77 950.758 440.491C950.46 440.213 950.1 440.074 949.68 440.074C949.049 440.074 948.556 440.385 948.201 441.007C947.846 441.626 947.668 442.503 947.668 443.636C947.668 444.392 947.748 445.034 947.907 445.562C948.066 446.091 948.295 446.493 948.593 446.768C948.894 447.044 949.256 447.182 949.68 447.182Z" fill="black"/>
<path d="M920.057 371V362.273H923.006C923.688 362.273 924.247 362.389 924.685 362.622C925.122 362.852 925.446 363.169 925.656 363.572C925.866 363.976 925.972 364.435 925.972 364.949C925.972 365.463 925.866 365.919 925.656 366.317C925.446 366.714 925.124 367.027 924.689 367.254C924.254 367.479 923.699 367.591 923.023 367.591H920.636V366.636H922.989C923.455 366.636 923.83 366.568 924.114 366.432C924.401 366.295 924.608 366.102 924.736 365.852C924.866 365.599 924.932 365.298 924.932 364.949C924.932 364.599 924.866 364.294 924.736 364.033C924.605 363.771 924.396 363.57 924.109 363.428C923.822 363.283 923.443 363.21 922.972 363.21H921.114V371H920.057ZM924.165 367.08L926.312 371H925.085L922.972 367.08H924.165ZM927.733 362.273H928.994L931.96 369.517H932.062L935.028 362.273H936.289V371H935.301V364.369H935.216L932.488 371H931.534L928.806 364.369H928.721V371H927.733V362.273ZM941.323 362.273V371H940.266V363.381H940.215L938.085 364.795V363.722L940.266 362.273H941.323ZM946.901 362.273V371H945.844V363.381H945.793L943.663 364.795V363.722L945.844 362.273H946.901Z" fill="black"/>
<path d="M919.057 301V292.273H922.006C922.688 292.273 923.247 292.389 923.685 292.622C924.122 292.852 924.446 293.169 924.656 293.572C924.866 293.976 924.972 294.435 924.972 294.949C924.972 295.463 924.866 295.919 924.656 296.317C924.446 296.714 924.124 297.027 923.689 297.254C923.254 297.479 922.699 297.591 922.023 297.591H919.636V296.636H921.989C922.455 296.636 922.83 296.568 923.114 296.432C923.401 296.295 923.608 296.102 923.736 295.852C923.866 295.599 923.932 295.298 923.932 294.949C923.932 294.599 923.866 294.294 923.736 294.033C923.605 293.771 923.396 293.57 923.109 293.428C922.822 293.283 922.443 293.21 921.972 293.21H920.114V301H919.057ZM923.165 297.08L925.312 301H924.085L921.972 297.08H923.165ZM926.733 292.273H927.994L930.96 299.517H931.062L934.028 292.273H935.289V301H934.301V294.369H934.216L931.488 301H930.534L927.806 294.369H927.721V301H926.733V292.273ZM940.323 292.273V301H939.266V293.381H939.215L937.085 294.795V293.722L939.266 292.273H940.323ZM942.833 301V300.233L945.714 297.08C946.052 296.71 946.33 296.389 946.549 296.116C946.768 295.841 946.93 295.582 947.035 295.341C947.143 295.097 947.197 294.841 947.197 294.574C947.197 294.267 947.123 294.001 946.975 293.777C946.83 293.553 946.631 293.379 946.379 293.257C946.126 293.135 945.842 293.074 945.526 293.074C945.191 293.074 944.898 293.143 944.648 293.283C944.401 293.419 944.21 293.611 944.073 293.858C943.94 294.105 943.873 294.395 943.873 294.727H942.867C942.867 294.216 942.985 293.767 943.221 293.381C943.457 292.994 943.778 292.693 944.184 292.477C944.593 292.261 945.052 292.153 945.56 292.153C946.072 292.153 946.525 292.261 946.92 292.477C947.315 292.693 947.624 292.984 947.849 293.351C948.073 293.717 948.185 294.125 948.185 294.574C948.185 294.895 948.127 295.209 948.011 295.516C947.897 295.82 947.698 296.159 947.414 296.534C947.133 296.906 946.742 297.361 946.242 297.898L944.282 299.994V300.062H948.339V301H942.833Z" fill="black"/>
<path d="M927.057 160V151.273H930.006C930.688 151.273 931.247 151.389 931.685 151.622C932.122 151.852 932.446 152.169 932.656 152.572C932.866 152.976 932.972 153.435 932.972 153.949C932.972 154.463 932.866 154.919 932.656 155.317C932.446 155.714 932.124 156.027 931.689 156.254C931.254 156.479 930.699 156.591 930.023 156.591H927.636V155.636H929.989C930.455 155.636 930.83 155.568 931.114 155.432C931.401 155.295 931.608 155.102 931.736 154.852C931.866 154.599 931.932 154.298 931.932 153.949C931.932 153.599 931.866 153.294 931.736 153.033C931.605 152.771 931.396 152.57 931.109 152.428C930.822 152.283 930.443 152.21 929.972 152.21H928.114V160H927.057ZM931.165 156.08L933.312 160H932.085L929.972 156.08H931.165ZM934.733 151.273H935.994L938.96 158.517H939.062L942.028 151.273H943.289V160H942.301V153.369H942.216L939.488 160H938.534L935.806 153.369H935.721V160H934.733V151.273ZM948.323 151.273V160H947.266V152.381H947.215L945.085 153.795V152.722L947.266 151.273H948.323ZM950.629 158.21V157.341L954.464 151.273H955.094V152.619H954.668L951.771 157.205V157.273H956.935V158.21H950.629ZM954.737 160V157.946V157.541V151.273H955.742V160H954.737Z" fill="black"/>
<path d="M920.057 231V222.273H923.006C923.688 222.273 924.247 222.389 924.685 222.622C925.122 222.852 925.446 223.169 925.656 223.572C925.866 223.976 925.972 224.435 925.972 224.949C925.972 225.463 925.866 225.919 925.656 226.317C925.446 226.714 925.124 227.027 924.689 227.254C924.254 227.479 923.699 227.591 923.023 227.591H920.636V226.636H922.989C923.455 226.636 923.83 226.568 924.114 226.432C924.401 226.295 924.608 226.102 924.736 225.852C924.866 225.599 924.932 225.298 924.932 224.949C924.932 224.599 924.866 224.294 924.736 224.033C924.605 223.771 924.396 223.57 924.109 223.428C923.822 223.283 923.443 223.21 922.972 223.21H921.114V231H920.057ZM924.165 227.08L926.312 231H925.085L922.972 227.08H924.165ZM927.733 222.273H928.994L931.96 229.517H932.062L935.028 222.273H936.289V231H935.301V224.369H935.216L932.488 231H931.534L928.806 224.369H928.721V231H927.733V222.273ZM941.323 222.273V231H940.266V223.381H940.215L938.085 224.795V223.722L940.266 222.273H941.323ZM946.782 231.119C946.219 231.119 945.718 231.023 945.278 230.83C944.84 230.636 944.492 230.368 944.234 230.024C943.978 229.678 943.839 229.276 943.816 228.818H944.89C944.913 229.099 945.009 229.342 945.18 229.547C945.35 229.749 945.573 229.905 945.849 230.016C946.124 230.126 946.43 230.182 946.765 230.182C947.14 230.182 947.472 230.116 947.762 229.986C948.052 229.855 948.279 229.673 948.444 229.44C948.609 229.207 948.691 228.938 948.691 228.631C948.691 228.31 948.612 228.027 948.452 227.783C948.293 227.536 948.06 227.342 947.754 227.203C947.447 227.064 947.072 226.994 946.629 226.994H945.93V226.057H946.629C946.975 226.057 947.279 225.994 947.54 225.869C947.805 225.744 948.011 225.568 948.158 225.341C948.309 225.114 948.384 224.847 948.384 224.54C948.384 224.244 948.319 223.987 948.188 223.768C948.058 223.55 947.873 223.379 947.634 223.257C947.398 223.135 947.12 223.074 946.799 223.074C946.498 223.074 946.214 223.129 945.947 223.24C945.683 223.348 945.467 223.506 945.299 223.713C945.131 223.918 945.04 224.165 945.026 224.455H944.004C944.021 223.997 944.158 223.597 944.417 223.253C944.675 222.906 945.013 222.636 945.431 222.443C945.852 222.25 946.313 222.153 946.816 222.153C947.356 222.153 947.819 222.263 948.205 222.482C948.592 222.697 948.888 222.983 949.096 223.338C949.303 223.693 949.407 224.077 949.407 224.489C949.407 224.98 949.278 225.399 949.019 225.746C948.763 226.092 948.415 226.332 947.975 226.466V226.534C948.526 226.625 948.957 226.859 949.266 227.237C949.576 227.612 949.731 228.077 949.731 228.631C949.731 229.105 949.602 229.531 949.343 229.909C949.087 230.284 948.738 230.58 948.295 230.795C947.852 231.011 947.347 231.119 946.782 231.119Z" fill="black"/>
<path d="M974.5 472.5V544.5H897.5V472.5H974.5Z" fill="#D9D9D9" stroke="black"/>
<rect x="897.5" y="0.5" width="147" height="56" fill="#D9D9D9" stroke="black"/>
<rect x="897" y="57" width="78" height="50" fill="#D9D9D9"/>
<path d="M929.057 97V88.2727H934.29V89.2102H930.114V92.1591H933.898V93.0966H930.114V97H929.057ZM936.1 97V88.2727H941.367V89.2102H937.157V92.1591H941.094V93.0966H937.157V96.0625H941.435V97H936.1Z" fill="black"/>
<path d="M961.057 42V33.2727H964.006C964.688 33.2727 965.247 33.3892 965.685 33.6222C966.122 33.8523 966.446 34.169 966.656 34.5724C966.866 34.9759 966.972 35.4347 966.972 35.9489C966.972 36.4631 966.866 36.919 966.656 37.3168C966.446 37.7145 966.124 38.027 965.689 38.2543C965.254 38.4787 964.699 38.5909 964.023 38.5909H961.636V37.6364H963.989C964.455 37.6364 964.83 37.5682 965.114 37.4318C965.401 37.2955 965.608 37.1023 965.736 36.8523C965.866 36.5994 965.932 36.2983 965.932 35.9489C965.932 35.5994 965.866 35.294 965.736 35.0327C965.605 34.7713 965.396 34.5696 965.109 34.4276C964.822 34.2827 964.443 34.2102 963.972 34.2102H962.114V42H961.057ZM965.165 38.0795L967.312 42H966.085L963.972 38.0795H965.165ZM971.647 33.2727V42H970.591V34.3807H970.539L968.409 35.7955V34.7216L970.591 33.2727H971.647ZM976.885 42.1193C976.385 42.1193 975.934 42.0199 975.534 41.821C975.133 41.6222 974.812 41.3494 974.571 41.0028C974.329 40.6562 974.197 40.2614 974.174 39.8182H975.197C975.237 40.2131 975.416 40.5398 975.734 40.7983C976.055 41.054 976.439 41.1818 976.885 41.1818C977.243 41.1818 977.561 41.098 977.839 40.9304C978.12 40.7628 978.341 40.5327 978.5 40.2401C978.662 39.9446 978.743 39.6108 978.743 39.2386C978.743 38.858 978.659 38.5185 978.491 38.2202C978.326 37.919 978.099 37.6818 977.809 37.5085C977.52 37.3352 977.189 37.2472 976.816 37.2443C976.549 37.2415 976.275 37.2827 975.994 37.3679C975.713 37.4503 975.481 37.5568 975.299 37.6875L974.311 37.5682L974.839 33.2727H979.373V34.2102H975.725L975.419 36.7841H975.47C975.649 36.642 975.873 36.5241 976.143 36.4304C976.413 36.3366 976.694 36.2898 976.987 36.2898C977.521 36.2898 977.997 36.4176 978.414 36.6733C978.835 36.9261 979.164 37.2727 979.403 37.7131C979.645 38.1534 979.765 38.6562 979.765 39.2216C979.765 39.7784 979.64 40.2756 979.39 40.7131C979.143 41.1477 978.802 41.4915 978.368 41.7443C977.933 41.9943 977.439 42.1193 976.885 42.1193Z" fill="black"/>
<path d="M1000.41 172.273L1003.01 179.619H1003.11L1005.7 172.273H1006.81L1003.6 181H1002.51L999.307 172.273H1000.41ZM1014.78 175H1013.72C1013.66 174.696 1013.55 174.429 1013.39 174.199C1013.24 173.969 1013.05 173.776 1012.83 173.619C1012.61 173.46 1012.37 173.341 1012.1 173.261C1011.84 173.182 1011.56 173.142 1011.27 173.142C1010.74 173.142 1010.26 173.276 1009.83 173.543C1009.41 173.81 1009.07 174.203 1008.81 174.723C1008.56 175.243 1008.44 175.881 1008.44 176.636C1008.44 177.392 1008.56 178.03 1008.81 178.55C1009.07 179.07 1009.41 179.463 1009.83 179.73C1010.26 179.997 1010.74 180.131 1011.27 180.131C1011.56 180.131 1011.84 180.091 1012.1 180.011C1012.37 179.932 1012.61 179.814 1012.83 179.658C1013.05 179.499 1013.24 179.304 1013.39 179.074C1013.55 178.841 1013.66 178.574 1013.72 178.273H1014.78C1014.7 178.719 1014.55 179.118 1014.34 179.47C1014.13 179.822 1013.87 180.122 1013.56 180.369C1013.25 180.614 1012.9 180.8 1012.51 180.928C1012.12 181.055 1011.71 181.119 1011.27 181.119C1010.52 181.119 1009.86 180.938 1009.28 180.574C1008.7 180.21 1008.25 179.693 1007.91 179.023C1007.58 178.352 1007.42 177.557 1007.42 176.636C1007.42 175.716 1007.58 174.92 1007.91 174.25C1008.25 173.58 1008.7 173.062 1009.28 172.699C1009.86 172.335 1010.52 172.153 1011.27 172.153C1011.71 172.153 1012.12 172.217 1012.51 172.345C1012.9 172.473 1013.25 172.661 1013.56 172.908C1013.87 173.152 1014.13 173.45 1014.34 173.803C1014.55 174.152 1014.7 174.551 1014.78 175Z" fill="black"/>
<rect y="618" width="975" height="70" fill="#D9D9D9"/>
<path d="M52.8523 661.119C52.2898 661.119 51.7884 661.023 51.348 660.83C50.9105 660.636 50.5625 660.368 50.304 660.024C50.0483 659.678 49.9091 659.276 49.8864 658.818H50.9602C50.983 659.099 51.0795 659.342 51.25 659.547C51.4205 659.749 51.6435 659.905 51.919 660.016C52.1946 660.126 52.5 660.182 52.8352 660.182C53.2102 660.182 53.5426 660.116 53.8324 659.986C54.1222 659.855 54.3494 659.673 54.5142 659.44C54.679 659.207 54.7614 658.938 54.7614 658.631C54.7614 658.31 54.6818 658.027 54.5227 657.783C54.3636 657.536 54.1307 657.342 53.8239 657.203C53.517 657.064 53.142 656.994 52.6989 656.994H52V656.057H52.6989C53.0455 656.057 53.3494 655.994 53.6108 655.869C53.875 655.744 54.081 655.568 54.2287 655.341C54.3793 655.114 54.4545 654.847 54.4545 654.54C54.4545 654.244 54.3892 653.987 54.2585 653.768C54.1278 653.55 53.9432 653.379 53.7045 653.257C53.4688 653.135 53.1903 653.074 52.8693 653.074C52.5682 653.074 52.2841 653.129 52.017 653.24C51.7528 653.348 51.5369 653.506 51.3693 653.713C51.2017 653.918 51.1108 654.165 51.0966 654.455H50.0739C50.0909 653.997 50.2287 653.597 50.4872 653.253C50.7457 652.906 51.0838 652.636 51.5014 652.443C51.9219 652.25 52.3835 652.153 52.8864 652.153C53.4261 652.153 53.8892 652.263 54.2756 652.482C54.6619 652.697 54.9588 652.983 55.1662 653.338C55.3736 653.693 55.4773 654.077 55.4773 654.489C55.4773 654.98 55.348 655.399 55.0895 655.746C54.8338 656.092 54.4858 656.332 54.0455 656.466V656.534C54.5966 656.625 55.027 656.859 55.3366 657.237C55.6463 657.612 55.8011 658.077 55.8011 658.631C55.8011 659.105 55.6719 659.531 55.4134 659.909C55.1577 660.284 54.8082 660.58 54.3651 660.795C53.9219 661.011 53.4176 661.119 52.8523 661.119ZM58.0245 661.068C57.8143 661.068 57.6339 660.993 57.4833 660.842C57.3327 660.692 57.2575 660.511 57.2575 660.301C57.2575 660.091 57.3327 659.911 57.4833 659.76C57.6339 659.609 57.8143 659.534 58.0245 659.534C58.2347 659.534 58.4151 659.609 58.5657 659.76C58.7163 659.911 58.7915 660.091 58.7915 660.301C58.7915 660.44 58.756 660.568 58.685 660.685C58.6168 660.801 58.5245 660.895 58.408 660.966C58.2944 661.034 58.1665 661.068 58.0245 661.068ZM60.7326 652.273H61.994L64.9599 659.517H65.0621L68.0281 652.273H69.2894V661H68.3008V654.369H68.2156L65.4883 661H64.5337L61.8065 654.369H61.7212V661H60.7326V652.273ZM73.1982 661.153C72.7834 661.153 72.407 661.075 72.0689 660.919C71.7308 660.76 71.4624 660.531 71.2635 660.233C71.0646 659.932 70.9652 659.568 70.9652 659.142C70.9652 658.767 71.0391 658.463 71.1868 658.23C71.3345 657.994 71.532 657.81 71.7791 657.676C72.0263 657.543 72.299 657.443 72.5973 657.378C72.8984 657.31 73.201 657.256 73.505 657.216C73.9027 657.165 74.2251 657.126 74.4723 657.101C74.7223 657.072 74.9041 657.026 75.0178 656.96C75.1342 656.895 75.1925 656.781 75.1925 656.619V656.585C75.1925 656.165 75.0774 655.838 74.8473 655.605C74.62 655.372 74.2749 655.256 73.8118 655.256C73.3317 655.256 72.9553 655.361 72.6825 655.571C72.4098 655.781 72.218 656.006 72.1072 656.244L71.1527 655.903C71.3232 655.506 71.5504 655.196 71.8345 654.974C72.1214 654.75 72.4339 654.594 72.772 654.506C73.1129 654.415 73.4482 654.369 73.7777 654.369C73.9879 654.369 74.2294 654.395 74.5021 654.446C74.7777 654.494 75.0433 654.595 75.299 654.749C75.5575 654.902 75.772 655.134 75.9425 655.443C76.1129 655.753 76.1982 656.168 76.1982 656.688V661H75.1925V660.114H75.1413C75.0732 660.256 74.9595 660.408 74.8004 660.57C74.6413 660.732 74.4297 660.869 74.1655 660.983C73.9013 661.097 73.5788 661.153 73.1982 661.153ZM73.3516 660.25C73.7493 660.25 74.0845 660.172 74.3572 660.016C74.6328 659.859 74.8402 659.658 74.9794 659.411C75.1214 659.163 75.1925 658.903 75.1925 658.631V657.71C75.1499 657.761 75.0561 657.808 74.9112 657.851C74.7692 657.891 74.6044 657.926 74.4169 657.957C74.2322 657.986 74.0518 658.011 73.8757 658.034C73.7024 658.054 73.5618 658.071 73.4538 658.085C73.1925 658.119 72.9482 658.175 72.7209 658.251C72.4964 658.325 72.3146 658.437 72.1754 658.588C72.0391 658.736 71.9709 658.937 71.9709 659.193C71.9709 659.543 72.1001 659.807 72.3587 659.986C72.62 660.162 72.951 660.25 73.3516 660.25ZM78.0337 661V654.455H79.0394V661H78.0337ZM78.5451 653.364C78.3491 653.364 78.18 653.297 78.038 653.163C77.8988 653.03 77.8292 652.869 77.8292 652.682C77.8292 652.494 77.8988 652.334 78.038 652.2C78.18 652.067 78.3491 652 78.5451 652C78.7411 652 78.9087 652.067 79.0479 652.2C79.19 652.334 79.261 652.494 79.261 652.682C79.261 652.869 79.19 653.03 79.0479 653.163C78.9087 653.297 78.7411 653.364 78.5451 653.364ZM81.8871 657.062V661H80.8814V654.455H81.853V655.477H81.9382C82.0916 655.145 82.3246 654.878 82.6371 654.676C82.9496 654.472 83.353 654.369 83.8473 654.369C84.2905 654.369 84.6783 654.46 85.0107 654.642C85.343 654.821 85.6016 655.094 85.7862 655.46C85.9709 655.824 86.0632 656.284 86.0632 656.841V661H85.0575V656.909C85.0575 656.395 84.924 655.994 84.657 655.707C84.3899 655.418 84.0234 655.273 83.5575 655.273C83.2365 655.273 82.9496 655.342 82.6967 655.482C82.4467 655.621 82.2493 655.824 82.1044 656.091C81.9595 656.358 81.8871 656.682 81.8871 657.062ZM98.435 655H97.3782C97.3157 654.696 97.2063 654.429 97.0501 654.199C96.8967 653.969 96.7092 653.776 96.4876 653.619C96.2688 653.46 96.0259 653.341 95.7589 653.261C95.4918 653.182 95.2134 653.142 94.9237 653.142C94.3952 653.142 93.9165 653.276 93.4876 653.543C93.0614 653.81 92.7219 654.203 92.4691 654.723C92.2191 655.243 92.0941 655.881 92.0941 656.636C92.0941 657.392 92.2191 658.03 92.4691 658.55C92.7219 659.07 93.0614 659.463 93.4876 659.73C93.9165 659.997 94.3952 660.131 94.9237 660.131C95.2134 660.131 95.4918 660.091 95.7589 660.011C96.0259 659.932 96.2688 659.814 96.4876 659.658C96.7092 659.499 96.8967 659.304 97.0501 659.074C97.2063 658.841 97.3157 658.574 97.3782 658.273H98.435C98.3555 658.719 98.2106 659.118 98.0004 659.47C97.7901 659.822 97.5288 660.122 97.2163 660.369C96.9038 660.614 96.5529 660.8 96.1637 660.928C95.7773 661.055 95.364 661.119 94.9237 661.119C94.1793 661.119 93.5174 660.938 92.9379 660.574C92.3583 660.21 91.9023 659.693 91.57 659.023C91.2376 658.352 91.0714 657.557 91.0714 656.636C91.0714 655.716 91.2376 654.92 91.57 654.25C91.9023 653.58 92.3583 653.062 92.9379 652.699C93.5174 652.335 94.1793 652.153 94.9237 652.153C95.364 652.153 95.7773 652.217 96.1637 652.345C96.5529 652.473 96.9038 652.661 97.2163 652.908C97.5288 653.152 97.7901 653.45 98.0004 653.803C98.2106 654.152 98.3555 654.551 98.435 655ZM102.665 661.136C102.075 661.136 101.556 660.996 101.11 660.714C100.667 660.433 100.32 660.04 100.07 659.534C99.8232 659.028 99.6996 658.437 99.6996 657.761C99.6996 657.08 99.8232 656.484 100.07 655.976C100.32 655.467 100.667 655.072 101.11 654.791C101.556 654.51 102.075 654.369 102.665 654.369C103.256 654.369 103.773 654.51 104.217 654.791C104.663 655.072 105.009 655.467 105.256 655.976C105.506 656.484 105.631 657.08 105.631 657.761C105.631 658.437 105.506 659.028 105.256 659.534C105.009 660.04 104.663 660.433 104.217 660.714C103.773 660.996 103.256 661.136 102.665 661.136ZM102.665 660.233C103.114 660.233 103.484 660.118 103.773 659.888C104.063 659.658 104.278 659.355 104.417 658.98C104.556 658.605 104.626 658.199 104.626 657.761C104.626 657.324 104.556 656.916 104.417 656.538C104.278 656.161 104.063 655.855 103.773 655.622C103.484 655.389 103.114 655.273 102.665 655.273C102.217 655.273 101.847 655.389 101.558 655.622C101.268 655.855 101.053 656.161 100.914 656.538C100.775 656.916 100.705 657.324 100.705 657.761C100.705 658.199 100.775 658.605 100.914 658.98C101.053 659.355 101.268 659.658 101.558 659.888C101.847 660.118 102.217 660.233 102.665 660.233ZM107.167 661V654.455H108.138V655.443H108.206C108.326 655.119 108.542 654.857 108.854 654.655C109.167 654.453 109.519 654.352 109.911 654.352C109.985 654.352 110.077 654.354 110.188 654.357C110.299 654.359 110.382 654.364 110.439 654.369V655.392C110.405 655.384 110.327 655.371 110.205 655.354C110.086 655.334 109.959 655.324 109.826 655.324C109.507 655.324 109.223 655.391 108.973 655.524C108.726 655.655 108.53 655.837 108.385 656.07C108.243 656.3 108.172 656.562 108.172 656.858V661H107.167ZM111.631 661V654.455H112.603V655.443H112.671C112.79 655.119 113.006 654.857 113.319 654.655C113.631 654.453 113.984 654.352 114.376 654.352C114.45 654.352 114.542 654.354 114.653 654.357C114.763 654.359 114.847 654.364 114.904 654.369V655.392C114.87 655.384 114.792 655.371 114.67 655.354C114.55 655.334 114.424 655.324 114.29 655.324C113.972 655.324 113.688 655.391 113.438 655.524C113.191 655.655 112.995 655.837 112.85 656.07C112.708 656.3 112.637 656.562 112.637 656.858V661H111.631ZM116.096 661V654.455H117.102V661H116.096ZM116.608 653.364C116.412 653.364 116.243 653.297 116.1 653.163C115.961 653.03 115.892 652.869 115.892 652.682C115.892 652.494 115.961 652.334 116.1 652.2C116.243 652.067 116.412 652 116.608 652C116.804 652 116.971 652.067 117.11 652.2C117.252 652.334 117.324 652.494 117.324 652.682C117.324 652.869 117.252 653.03 117.11 653.163C116.971 653.297 116.804 653.364 116.608 653.364ZM121.415 661.136C120.87 661.136 120.388 660.999 119.971 660.723C119.553 660.445 119.227 660.053 118.991 659.547C118.755 659.038 118.637 658.438 118.637 657.744C118.637 657.057 118.755 656.46 118.991 655.955C119.227 655.449 119.555 655.058 119.975 654.783C120.396 654.507 120.881 654.369 121.433 654.369C121.859 654.369 122.195 654.44 122.442 654.582C122.692 654.722 122.883 654.881 123.013 655.06C123.147 655.236 123.251 655.381 123.325 655.494H123.41V652.273H124.415V661H123.444V659.994H123.325C123.251 660.114 123.146 660.264 123.009 660.446C122.873 660.625 122.678 660.786 122.425 660.928C122.173 661.067 121.836 661.136 121.415 661.136ZM121.552 660.233C121.955 660.233 122.296 660.128 122.575 659.918C122.853 659.705 123.065 659.411 123.21 659.036C123.354 658.658 123.427 658.222 123.427 657.727C123.427 657.239 123.356 656.811 123.214 656.445C123.072 656.075 122.862 655.788 122.583 655.584C122.305 655.376 121.961 655.273 121.552 655.273C121.126 655.273 120.771 655.382 120.487 655.601C120.205 655.817 119.994 656.111 119.852 656.483C119.712 656.852 119.643 657.267 119.643 657.727C119.643 658.193 119.714 658.616 119.856 658.997C120.001 659.375 120.214 659.676 120.495 659.901C120.779 660.122 121.131 660.233 121.552 660.233ZM129.056 661.136C128.465 661.136 127.947 660.996 127.501 660.714C127.058 660.433 126.711 660.04 126.461 659.534C126.214 659.028 126.09 658.437 126.09 657.761C126.09 657.08 126.214 656.484 126.461 655.976C126.711 655.467 127.058 655.072 127.501 654.791C127.947 654.51 128.465 654.369 129.056 654.369C129.647 654.369 130.164 654.51 130.607 654.791C131.053 655.072 131.4 655.467 131.647 655.976C131.897 656.484 132.022 657.08 132.022 657.761C132.022 658.437 131.897 659.028 131.647 659.534C131.4 660.04 131.053 660.433 130.607 660.714C130.164 660.996 129.647 661.136 129.056 661.136ZM129.056 660.233C129.505 660.233 129.874 660.118 130.164 659.888C130.454 659.658 130.668 659.355 130.808 658.98C130.947 658.605 131.016 658.199 131.016 657.761C131.016 657.324 130.947 656.916 130.808 656.538C130.668 656.161 130.454 655.855 130.164 655.622C129.874 655.389 129.505 655.273 129.056 655.273C128.607 655.273 128.238 655.389 127.948 655.622C127.658 655.855 127.444 656.161 127.305 656.538C127.165 656.916 127.096 657.324 127.096 657.761C127.096 658.199 127.165 658.605 127.305 658.98C127.444 659.355 127.658 659.658 127.948 659.888C128.238 660.118 128.607 660.233 129.056 660.233ZM133.557 661V654.455H134.529V655.443H134.597C134.716 655.119 134.932 654.857 135.245 654.655C135.557 654.453 135.909 654.352 136.301 654.352C136.375 654.352 136.468 654.354 136.578 654.357C136.689 654.359 136.773 654.364 136.83 654.369V655.392C136.796 655.384 136.718 655.371 136.596 655.354C136.476 655.334 136.35 655.324 136.216 655.324C135.898 655.324 135.614 655.391 135.364 655.524C135.117 655.655 134.921 655.837 134.776 656.07C134.634 656.3 134.563 656.562 134.563 656.858V661H133.557Z" fill="black"/>
<path d="M195.354 503.398L107.959 589.358L21.7074 501.668L109.102 415.707L195.354 503.398Z" fill="#D9D9D9" stroke="black"/>
<rect x="78" y="561" width="61" height="57" fill="#D9D9D9"/>
<rect x="48" y="725" width="17" height="1" fill="#D9D9D9"/>
<rect x="459.5" y="688.5" width="147" height="72" fill="#D9D9D9" stroke="black"/>
<rect x="459.5" y="761.5" width="147" height="54" fill="#D9D9D9" stroke="black"/>
<rect x="607.5" y="761.5" width="147" height="54" fill="#D9D9D9" stroke="black"/>
<rect x="607.5" y="688.5" width="148" height="72" fill="#D9D9D9" stroke="black"/>
<path d="M657.58 734.21V733.273H664.125V734.21H661.381V742H660.324V734.21H657.58ZM665.756 742V733.273H668.705C669.387 733.273 669.946 733.389 670.384 733.622C670.821 733.852 671.145 734.169 671.355 734.572C671.566 734.976 671.671 735.435 671.671 735.949C671.671 736.463 671.566 736.919 671.355 737.317C671.145 737.714 670.823 738.027 670.388 738.254C669.953 738.479 669.398 738.591 668.722 738.591H666.336V737.636H668.688C669.154 737.636 669.529 737.568 669.813 737.432C670.1 737.295 670.307 737.102 670.435 736.852C670.566 736.599 670.631 736.298 670.631 735.949C670.631 735.599 670.566 735.294 670.435 735.033C670.304 734.771 670.096 734.57 669.809 734.428C669.522 734.283 669.142 734.21 668.671 734.21H666.813V742H665.756ZM669.864 738.08L672.012 742H670.784L668.671 738.08H669.864Z" fill="black"/>
<path d="M522.42 789.636C522.42 790.557 522.254 791.352 521.922 792.023C521.589 792.693 521.134 793.21 520.554 793.574C519.974 793.938 519.313 794.119 518.568 794.119C517.824 794.119 517.162 793.938 516.582 793.574C516.003 793.21 515.547 792.693 515.214 792.023C514.882 791.352 514.716 790.557 514.716 789.636C514.716 788.716 514.882 787.92 515.214 787.25C515.547 786.58 516.003 786.062 516.582 785.699C517.162 785.335 517.824 785.153 518.568 785.153C519.313 785.153 519.974 785.335 520.554 785.699C521.134 786.062 521.589 786.58 521.922 787.25C522.254 787.92 522.42 788.716 522.42 789.636ZM521.398 789.636C521.398 788.881 521.271 788.243 521.018 787.723C520.768 787.203 520.429 786.81 520 786.543C519.574 786.276 519.097 786.142 518.568 786.142C518.04 786.142 517.561 786.276 517.132 786.543C516.706 786.81 516.366 787.203 516.114 787.723C515.864 788.243 515.739 788.881 515.739 789.636C515.739 790.392 515.864 791.03 516.114 791.55C516.366 792.07 516.706 792.463 517.132 792.73C517.561 792.997 518.04 793.131 518.568 793.131C519.097 793.131 519.574 792.997 520 792.73C520.429 792.463 520.768 792.07 521.018 791.55C521.271 791.03 521.398 790.392 521.398 789.636ZM524.197 794V785.273H527.146C527.828 785.273 528.388 785.389 528.825 785.622C529.263 785.852 529.587 786.169 529.797 786.572C530.007 786.976 530.112 787.435 530.112 787.949C530.112 788.463 530.007 788.919 529.797 789.317C529.587 789.714 529.264 790.027 528.83 790.254C528.395 790.479 527.839 790.591 527.163 790.591H524.777V789.636H527.129C527.595 789.636 527.97 789.568 528.254 789.432C528.541 789.295 528.749 789.102 528.876 788.852C529.007 788.599 529.072 788.298 529.072 787.949C529.072 787.599 529.007 787.294 528.876 787.033C528.746 786.771 528.537 786.57 528.25 786.428C527.963 786.283 527.584 786.21 527.112 786.21H525.254V794H524.197ZM528.305 790.08L530.453 794H529.226L527.112 790.08H528.305Z" fill="black"/>
<rect x="459.5" y="816.5" width="147" height="217" fill="#D9D9D9" stroke="black"/>
<rect x="298.5" y="799.5" width="84" height="68" fill="#D9D9D9" stroke="black"/>
<rect x="298.5" y="868.5" width="84" height="68" fill="#D9D9D9" stroke="black"/>
<rect x="298.5" y="868.5" width="84" height="68" fill="#D9D9D9" stroke="black"/>
<rect x="298.5" y="925.5" width="84" height="108" fill="#D9D9D9" stroke="black"/>
<rect x="298.5" y="799.5" width="45" height="16" fill="#D9D9D9" stroke="black"/>
<rect x="340.5" y="799.5" width="42" height="25" fill="#D9D9D9" stroke="black"/>
<line x1="0.5" y1="618" x2="0.5" y2="688" stroke="black"/>
<line y1="617.5" x2="78" y2="617.5" stroke="black"/>
<line x1="78.5" y1="561" x2="78.5" y2="618" stroke="black"/>
<line x1="139.5" y1="561" x2="139.5" y2="618" stroke="black"/>
<line x1="383.5" y1="761" x2="383.5" y2="799" stroke="black"/>
<line x1="1045.5" y1="57" x2="1045.5" y2="631" stroke="black"/>
<line x1="1044.5" y1="689" x2="1044.5" y2="658" stroke="black"/>
<rect x="139" y="610" width="758" height="8" fill="black"/>
<path d="M143 612H164V616H143V612Z" fill="#F5F5F5"/>
<path d="M197.5 612H218.5V616H197.5V612Z" fill="#F5F5F5"/>
<path d="M257.5 612H278.5V616H257.5V612Z" fill="#F5F5F5"/>
<path d="M316 612H337V616H316V612Z" fill="#F5F5F5"/>
<path d="M382 612H403V616H382V612Z" fill="#F5F5F5"/>
<path d="M433.5 612H454.5V616H433.5V612Z" fill="#F5F5F5"/>
<rect x="550.5" y="672.5" width="54" height="17" fill="#D9D9D9" stroke="black"/>
<rect x="555.302" y="672.686" width="11" height="9" transform="rotate(30.8617 555.302 672.686)" fill="#D9D9D9" stroke="black"/>
<path d="M596.262 686.438L590.584 679.456L599.118 672.516L604.797 679.498L596.262 686.438Z" fill="#D9D9D9" stroke="black"/>
<rect x="550" y="668" width="5" height="6" fill="#D9D9D9"/>
<rect x="550" y="672" width="1" height="9" fill="#D9D9D9"/>
<rect x="556" y="673" width="12" height="11" fill="#D9D9D9"/>
<rect x="552" y="679" width="17" height="8" fill="#D9D9D9"/>
<rect x="602" y="666" width="5" height="2" fill="#D9D9D9"/>
<rect x="610" y="679" width="1" height="1" fill="#D9D9D9"/>
<rect x="604" y="672" width="7" height="7" fill="#D9D9D9"/>
<rect x="600" y="670" width="11" height="3" fill="#D9D9D9"/>
<rect x="591" y="673" width="8" height="2" fill="#D9D9D9"/>
<rect x="585" y="676" width="15" height="11" fill="#D9D9D9"/>
<rect x="594" y="675" width="4" height="1" fill="#D9D9D9"/>
<rect x="600" y="679" width="4" height="6" fill="#D9D9D9"/>
<rect x="552" y="685" width="52" height="9" fill="#D9D9D9"/>
<rect x="474" y="684" width="29" height="10" fill="#D9D9D9"/>
<rect x="468" y="603" width="28" height="18" fill="#D9D9D9"/>
<rect x="120" y="449.162" width="17" height="34" transform="rotate(-45.6769 120 449.162)" fill="#D9D9D9"/>
<path d="M90.9716 496.273V505H89.9148V497.381H89.8636L87.733 498.795V497.722L89.9148 496.273H90.9716ZM94.2315 503.884C94.0213 503.884 93.8409 503.808 93.6903 503.658C93.5398 503.507 93.4645 503.327 93.4645 503.116C93.4645 502.906 93.5398 502.726 93.6903 502.575C93.8409 502.425 94.0213 502.349 94.2315 502.349C94.4418 502.349 94.6222 502.425 94.7727 502.575C94.9233 502.726 94.9986 502.906 94.9986 503.116C94.9986 503.256 94.9631 503.384 94.892 503.5C94.8239 503.616 94.7315 503.71 94.6151 503.781C94.5014 503.849 94.3736 503.884 94.2315 503.884ZM94.2315 499.469C94.0213 499.469 93.8409 499.393 93.6903 499.243C93.5398 499.092 93.4645 498.912 93.4645 498.702C93.4645 498.491 93.5398 498.311 93.6903 498.161C93.8409 498.01 94.0213 497.935 94.2315 497.935C94.4418 497.935 94.6222 498.01 94.7727 498.161C94.9233 498.311 94.9986 498.491 94.9986 498.702C94.9986 498.841 94.9631 498.969 94.892 499.085C94.8239 499.202 94.7315 499.295 94.6151 499.366C94.5014 499.435 94.3736 499.469 94.2315 499.469ZM96.9396 505V496.273H99.8885C100.57 496.273 101.13 496.389 101.567 496.622C102.005 496.852 102.329 497.169 102.539 497.572C102.749 497.976 102.854 498.435 102.854 498.949C102.854 499.463 102.749 499.919 102.539 500.317C102.329 500.714 102.006 501.027 101.572 501.254C101.137 501.479 100.582 501.591 99.9055 501.591H97.5192V500.636H99.8714C100.337 500.636 100.712 500.568 100.996 500.432C101.283 500.295 101.491 500.102 101.619 499.852C101.749 499.599 101.815 499.298 101.815 498.949C101.815 498.599 101.749 498.294 101.619 498.033C101.488 497.771 101.279 497.57 100.992 497.428C100.705 497.283 100.326 497.21 99.8544 497.21H97.9964V505H96.9396ZM101.048 501.08L103.195 505H101.968L99.8544 501.08H101.048ZM107.153 505.136C106.522 505.136 105.978 504.997 105.521 504.719C105.066 504.438 104.716 504.045 104.468 503.543C104.224 503.037 104.102 502.449 104.102 501.778C104.102 501.108 104.224 500.517 104.468 500.006C104.716 499.491 105.059 499.091 105.5 498.804C105.943 498.514 106.46 498.369 107.051 498.369C107.392 498.369 107.728 498.426 108.061 498.54C108.393 498.653 108.696 498.838 108.968 499.094C109.241 499.347 109.458 499.682 109.62 500.099C109.782 500.517 109.863 501.031 109.863 501.642V502.068H104.818V501.199H108.841C108.841 500.83 108.767 500.5 108.619 500.21C108.474 499.92 108.267 499.692 107.997 499.524C107.73 499.357 107.414 499.273 107.051 499.273C106.65 499.273 106.304 499.372 106.011 499.571C105.721 499.767 105.498 500.023 105.342 500.338C105.186 500.653 105.108 500.991 105.108 501.352V501.932C105.108 502.426 105.193 502.845 105.363 503.189C105.537 503.53 105.777 503.79 106.083 503.969C106.39 504.145 106.747 504.233 107.153 504.233C107.417 504.233 107.656 504.196 107.869 504.122C108.085 504.045 108.271 503.932 108.427 503.781C108.583 503.628 108.704 503.437 108.789 503.21L109.761 503.483C109.659 503.812 109.487 504.102 109.245 504.352C109.004 504.599 108.706 504.793 108.35 504.932C107.995 505.068 107.596 505.136 107.153 505.136ZM114.052 505.136C113.439 505.136 112.91 504.991 112.467 504.702C112.024 504.412 111.683 504.013 111.444 503.504C111.206 502.996 111.086 502.415 111.086 501.761C111.086 501.097 111.208 500.51 111.453 500.001C111.7 499.49 112.044 499.091 112.484 498.804C112.927 498.514 113.444 498.369 114.035 498.369C114.495 498.369 114.91 498.455 115.279 498.625C115.649 498.795 115.951 499.034 116.187 499.341C116.423 499.648 116.569 500.006 116.626 500.415H115.62C115.544 500.116 115.373 499.852 115.109 499.622C114.848 499.389 114.495 499.273 114.052 499.273C113.66 499.273 113.316 499.375 113.021 499.58C112.728 499.781 112.5 500.067 112.335 500.436C112.173 500.803 112.092 501.233 112.092 501.727C112.092 502.233 112.172 502.673 112.331 503.048C112.493 503.423 112.72 503.714 113.012 503.922C113.308 504.129 113.654 504.233 114.052 504.233C114.314 504.233 114.551 504.188 114.764 504.097C114.977 504.006 115.157 503.875 115.305 503.705C115.453 503.534 115.558 503.33 115.62 503.091H116.626C116.569 503.477 116.429 503.825 116.204 504.135C115.983 504.442 115.689 504.686 115.322 504.868C114.958 505.047 114.535 505.136 114.052 505.136ZM120.841 505.136C120.21 505.136 119.666 504.997 119.208 504.719C118.754 504.438 118.403 504.045 118.156 503.543C117.912 503.037 117.789 502.449 117.789 501.778C117.789 501.108 117.912 500.517 118.156 500.006C118.403 499.491 118.747 499.091 119.187 498.804C119.63 498.514 120.147 498.369 120.738 498.369C121.079 498.369 121.416 498.426 121.748 498.54C122.081 498.653 122.383 498.838 122.656 499.094C122.929 499.347 123.146 499.682 123.308 500.099C123.47 500.517 123.551 501.031 123.551 501.642V502.068H118.505V501.199H122.528C122.528 500.83 122.454 500.5 122.306 500.21C122.162 499.92 121.954 499.692 121.684 499.524C121.417 499.357 121.102 499.273 120.738 499.273C120.338 499.273 119.991 499.372 119.699 499.571C119.409 499.767 119.186 500.023 119.029 500.338C118.873 500.653 118.795 500.991 118.795 501.352V501.932C118.795 502.426 118.88 502.845 119.051 503.189C119.224 503.53 119.464 503.79 119.771 503.969C120.078 504.145 120.434 504.233 120.841 504.233C121.105 504.233 121.343 504.196 121.556 504.122C121.772 504.045 121.958 503.932 122.115 503.781C122.271 503.628 122.392 503.437 122.477 503.21L123.449 503.483C123.346 503.812 123.174 504.102 122.933 504.352C122.691 504.599 122.393 504.793 122.038 504.932C121.683 505.068 121.284 505.136 120.841 505.136ZM125.081 507.455V498.455H126.052V499.494H126.172C126.245 499.381 126.348 499.236 126.478 499.06C126.612 498.881 126.802 498.722 127.049 498.582C127.299 498.44 127.637 498.369 128.064 498.369C128.615 498.369 129.1 498.507 129.521 498.783C129.941 499.058 130.27 499.449 130.505 499.955C130.741 500.46 130.859 501.057 130.859 501.744C130.859 502.438 130.741 503.038 130.505 503.547C130.27 504.053 129.943 504.445 129.525 504.723C129.108 504.999 128.626 505.136 128.081 505.136C127.66 505.136 127.324 505.067 127.071 504.928C126.818 504.786 126.623 504.625 126.487 504.446C126.35 504.264 126.245 504.114 126.172 503.994H126.086V507.455H125.081ZM126.069 501.727C126.069 502.222 126.142 502.658 126.287 503.036C126.431 503.411 126.643 503.705 126.922 503.918C127.2 504.128 127.541 504.233 127.944 504.233C128.365 504.233 128.716 504.122 128.997 503.901C129.281 503.676 129.494 503.375 129.636 502.997C129.781 502.616 129.853 502.193 129.853 501.727C129.853 501.267 129.782 500.852 129.64 500.483C129.501 500.111 129.289 499.817 129.005 499.601C128.724 499.382 128.37 499.273 127.944 499.273C127.535 499.273 127.191 499.376 126.913 499.584C126.635 499.788 126.424 500.075 126.282 500.445C126.14 500.811 126.069 501.239 126.069 501.727ZM135.24 498.455V499.307H131.848V498.455H135.24ZM132.836 496.886H133.842V503.125C133.842 503.409 133.883 503.622 133.966 503.764C134.051 503.903 134.159 503.997 134.289 504.045C134.423 504.091 134.564 504.114 134.711 504.114C134.822 504.114 134.913 504.108 134.984 504.097C135.055 504.082 135.112 504.071 135.154 504.062L135.359 504.966C135.291 504.991 135.196 505.017 135.074 505.043C134.951 505.071 134.797 505.085 134.609 505.085C134.325 505.085 134.047 505.024 133.774 504.902C133.504 504.78 133.279 504.594 133.1 504.344C132.924 504.094 132.836 503.778 132.836 503.398V496.886ZM136.752 505V498.455H137.758V505H136.752ZM137.264 497.364C137.068 497.364 136.899 497.297 136.757 497.163C136.618 497.03 136.548 496.869 136.548 496.682C136.548 496.494 136.618 496.334 136.757 496.2C136.899 496.067 137.068 496 137.264 496C137.46 496 137.627 496.067 137.767 496.2C137.909 496.334 137.98 496.494 137.98 496.682C137.98 496.869 137.909 497.03 137.767 497.163C137.627 497.297 137.46 497.364 137.264 497.364ZM142.259 505.136C141.668 505.136 141.15 504.996 140.704 504.714C140.261 504.433 139.914 504.04 139.664 503.534C139.417 503.028 139.293 502.437 139.293 501.761C139.293 501.08 139.417 500.484 139.664 499.976C139.914 499.467 140.261 499.072 140.704 498.791C141.15 498.51 141.668 498.369 142.259 498.369C142.85 498.369 143.367 498.51 143.81 498.791C144.256 499.072 144.603 499.467 144.85 499.976C145.1 500.484 145.225 501.08 145.225 501.761C145.225 502.437 145.1 503.028 144.85 503.534C144.603 504.04 144.256 504.433 143.81 504.714C143.367 504.996 142.85 505.136 142.259 505.136ZM142.259 504.233C142.708 504.233 143.077 504.118 143.367 503.888C143.657 503.658 143.871 503.355 144.011 502.98C144.15 502.605 144.219 502.199 144.219 501.761C144.219 501.324 144.15 500.916 144.011 500.538C143.871 500.161 143.657 499.855 143.367 499.622C143.077 499.389 142.708 499.273 142.259 499.273C141.81 499.273 141.441 499.389 141.151 499.622C140.862 499.855 140.647 500.161 140.508 500.538C140.369 500.916 140.299 501.324 140.299 501.761C140.299 502.199 140.369 502.605 140.508 502.98C140.647 503.355 140.862 503.658 141.151 503.888C141.441 504.118 141.81 504.233 142.259 504.233ZM147.766 501.062V505H146.76V498.455H147.732V499.477H147.817C147.971 499.145 148.203 498.878 148.516 498.676C148.828 498.472 149.232 498.369 149.726 498.369C150.169 498.369 150.557 498.46 150.89 498.642C151.222 498.821 151.48 499.094 151.665 499.46C151.85 499.824 151.942 500.284 151.942 500.841V505H150.936V500.909C150.936 500.395 150.803 499.994 150.536 499.707C150.269 499.418 149.902 499.273 149.436 499.273C149.115 499.273 148.828 499.342 148.576 499.482C148.326 499.621 148.128 499.824 147.983 500.091C147.838 500.358 147.766 500.682 147.766 501.062Z" fill="black"/>
<path d="M113.903 455V454.233L116.784 451.08C117.122 450.71 117.401 450.389 117.619 450.116C117.838 449.841 118 449.582 118.105 449.341C118.213 449.097 118.267 448.841 118.267 448.574C118.267 448.267 118.193 448.001 118.045 447.777C117.901 447.553 117.702 447.379 117.449 447.257C117.196 447.135 116.912 447.074 116.597 447.074C116.261 447.074 115.969 447.143 115.719 447.283C115.472 447.419 115.28 447.611 115.143 447.858C115.01 448.105 114.943 448.395 114.943 448.727H113.938C113.938 448.216 114.055 447.767 114.291 447.381C114.527 446.994 114.848 446.693 115.254 446.477C115.663 446.261 116.122 446.153 116.631 446.153C117.142 446.153 117.595 446.261 117.99 446.477C118.385 446.693 118.695 446.984 118.919 447.351C119.143 447.717 119.256 448.125 119.256 448.574C119.256 448.895 119.197 449.209 119.081 449.516C118.967 449.82 118.768 450.159 118.484 450.534C118.203 450.906 117.812 451.361 117.312 451.898L115.352 453.994V454.062H119.409V455H113.903ZM121.919 453.884C121.709 453.884 121.528 453.808 121.378 453.658C121.227 453.507 121.152 453.327 121.152 453.116C121.152 452.906 121.227 452.726 121.378 452.575C121.528 452.425 121.709 452.349 121.919 452.349C122.129 452.349 122.31 452.425 122.46 452.575C122.611 452.726 122.686 452.906 122.686 453.116C122.686 453.256 122.651 453.384 122.58 453.5C122.511 453.616 122.419 453.71 122.303 453.781C122.189 453.849 122.061 453.884 121.919 453.884ZM121.919 449.469C121.709 449.469 121.528 449.393 121.378 449.243C121.227 449.092 121.152 448.912 121.152 448.702C121.152 448.491 121.227 448.311 121.378 448.161C121.528 448.01 121.709 447.935 121.919 447.935C122.129 447.935 122.31 448.01 122.46 448.161C122.611 448.311 122.686 448.491 122.686 448.702C122.686 448.841 122.651 448.969 122.58 449.085C122.511 449.202 122.419 449.295 122.303 449.366C122.189 449.435 122.061 449.469 121.919 449.469ZM128.002 446.273H129.263L132.229 453.517H132.332L135.298 446.273H136.559V455H135.57V448.369H135.485L132.758 455H131.803L129.076 448.369H128.991V455H128.002V446.273ZM140.468 455.153C140.053 455.153 139.676 455.075 139.338 454.919C139 454.76 138.732 454.531 138.533 454.233C138.334 453.932 138.235 453.568 138.235 453.142C138.235 452.767 138.309 452.463 138.456 452.23C138.604 451.994 138.801 451.81 139.049 451.676C139.296 451.543 139.569 451.443 139.867 451.378C140.168 451.31 140.471 451.256 140.775 451.216C141.172 451.165 141.495 451.126 141.742 451.101C141.992 451.072 142.174 451.026 142.287 450.96C142.404 450.895 142.462 450.781 142.462 450.619V450.585C142.462 450.165 142.347 449.838 142.117 449.605C141.89 449.372 141.544 449.256 141.081 449.256C140.601 449.256 140.225 449.361 139.952 449.571C139.679 449.781 139.488 450.006 139.377 450.244L138.422 449.903C138.593 449.506 138.82 449.196 139.104 448.974C139.391 448.75 139.703 448.594 140.042 448.506C140.382 448.415 140.718 448.369 141.047 448.369C141.257 448.369 141.499 448.395 141.772 448.446C142.047 448.494 142.313 448.595 142.569 448.749C142.827 448.902 143.042 449.134 143.212 449.443C143.382 449.753 143.468 450.168 143.468 450.688V455H142.462V454.114H142.411C142.343 454.256 142.229 454.408 142.07 454.57C141.911 454.732 141.699 454.869 141.435 454.983C141.171 455.097 140.848 455.153 140.468 455.153ZM140.621 454.25C141.019 454.25 141.354 454.172 141.627 454.016C141.902 453.859 142.11 453.658 142.249 453.411C142.391 453.163 142.462 452.903 142.462 452.631V451.71C142.419 451.761 142.326 451.808 142.181 451.851C142.039 451.891 141.874 451.926 141.686 451.957C141.502 451.986 141.321 452.011 141.145 452.034C140.972 452.054 140.831 452.071 140.723 452.085C140.462 452.119 140.218 452.175 139.99 452.251C139.766 452.325 139.584 452.437 139.445 452.588C139.309 452.736 139.24 452.937 139.24 453.193C139.24 453.543 139.37 453.807 139.628 453.986C139.89 454.162 140.221 454.25 140.621 454.25ZM145.303 455V448.455H146.309V455H145.303ZM145.815 447.364C145.619 447.364 145.45 447.297 145.308 447.163C145.168 447.03 145.099 446.869 145.099 446.682C145.099 446.494 145.168 446.334 145.308 446.2C145.45 446.067 145.619 446 145.815 446C146.011 446 146.178 446.067 146.317 446.2C146.46 446.334 146.531 446.494 146.531 446.682C146.531 446.869 146.46 447.03 146.317 447.163C146.178 447.297 146.011 447.364 145.815 447.364ZM149.157 451.062V455H148.151V448.455H149.123V449.477H149.208C149.361 449.145 149.594 448.878 149.907 448.676C150.219 448.472 150.623 448.369 151.117 448.369C151.56 448.369 151.948 448.46 152.28 448.642C152.613 448.821 152.871 449.094 153.056 449.46C153.24 449.824 153.333 450.284 153.333 450.841V455H152.327V450.909C152.327 450.395 152.194 449.994 151.926 449.707C151.659 449.418 151.293 449.273 150.827 449.273C150.506 449.273 150.219 449.342 149.966 449.482C149.716 449.621 149.519 449.824 149.374 450.091C149.229 450.358 149.157 450.682 149.157 451.062ZM161.29 455.136C160.659 455.136 160.115 454.997 159.658 454.719C159.203 454.438 158.852 454.045 158.605 453.543C158.361 453.037 158.239 452.449 158.239 451.778C158.239 451.108 158.361 450.517 158.605 450.006C158.852 449.491 159.196 449.091 159.636 448.804C160.08 448.514 160.597 448.369 161.188 448.369C161.528 448.369 161.865 448.426 162.197 448.54C162.53 448.653 162.832 448.838 163.105 449.094C163.378 449.347 163.595 449.682 163.757 450.099C163.919 450.517 164 451.031 164 451.642V452.068H158.955V451.199H162.977C162.977 450.83 162.903 450.5 162.756 450.21C162.611 449.92 162.403 449.692 162.134 449.524C161.866 449.357 161.551 449.273 161.188 449.273C160.787 449.273 160.44 449.372 160.148 449.571C159.858 449.767 159.635 450.023 159.479 450.338C159.322 450.653 159.244 450.991 159.244 451.352V451.932C159.244 452.426 159.33 452.845 159.5 453.189C159.673 453.53 159.913 453.79 160.22 453.969C160.527 454.145 160.884 454.233 161.29 454.233C161.554 454.233 161.793 454.196 162.006 454.122C162.222 454.045 162.408 453.932 162.564 453.781C162.72 453.628 162.841 453.437 162.926 453.21L163.898 453.483C163.795 453.812 163.624 454.102 163.382 454.352C163.141 454.599 162.842 454.793 162.487 454.932C162.132 455.068 161.733 455.136 161.29 455.136ZM166.536 451.062V455H165.53V448.455H166.501V449.477H166.587C166.74 449.145 166.973 448.878 167.286 448.676C167.598 448.472 168.001 448.369 168.496 448.369C168.939 448.369 169.327 448.46 169.659 448.642C169.991 448.821 170.25 449.094 170.435 449.46C170.619 449.824 170.712 450.284 170.712 450.841V455H169.706V450.909C169.706 450.395 169.572 449.994 169.305 449.707C169.038 449.418 168.672 449.273 168.206 449.273C167.885 449.273 167.598 449.342 167.345 449.482C167.095 449.621 166.898 449.824 166.753 450.091C166.608 450.358 166.536 450.682 166.536 451.062ZM175.396 448.455V449.307H172.004V448.455H175.396ZM172.993 446.886H173.998V453.125C173.998 453.409 174.039 453.622 174.122 453.764C174.207 453.903 174.315 453.997 174.446 454.045C174.579 454.091 174.72 454.114 174.868 454.114C174.978 454.114 175.069 454.108 175.14 454.097C175.211 454.082 175.268 454.071 175.311 454.062L175.515 454.966C175.447 454.991 175.352 455.017 175.23 455.043C175.108 455.071 174.953 455.085 174.765 455.085C174.481 455.085 174.203 455.024 173.93 454.902C173.66 454.78 173.436 454.594 173.257 454.344C173.081 454.094 172.993 453.778 172.993 453.398V446.886ZM176.909 455V448.455H177.88V449.443H177.949C178.068 449.119 178.284 448.857 178.596 448.655C178.909 448.453 179.261 448.352 179.653 448.352C179.727 448.352 179.819 448.354 179.93 448.357C180.041 448.359 180.125 448.364 180.181 448.369V449.392C180.147 449.384 180.069 449.371 179.947 449.354C179.828 449.334 179.701 449.324 179.568 449.324C179.25 449.324 178.966 449.391 178.716 449.524C178.468 449.655 178.272 449.837 178.127 450.07C177.985 450.3 177.914 450.562 177.914 450.858V455H176.909ZM183.3 455.153C182.885 455.153 182.509 455.075 182.17 454.919C181.832 454.76 181.564 454.531 181.365 454.233C181.166 453.932 181.067 453.568 181.067 453.142C181.067 452.767 181.141 452.463 181.288 452.23C181.436 451.994 181.634 451.81 181.881 451.676C182.128 451.543 182.401 451.443 182.699 451.378C183 451.31 183.303 451.256 183.607 451.216C184.004 451.165 184.327 451.126 184.574 451.101C184.824 451.072 185.006 451.026 185.119 450.96C185.236 450.895 185.294 450.781 185.294 450.619V450.585C185.294 450.165 185.179 449.838 184.949 449.605C184.722 449.372 184.376 449.256 183.913 449.256C183.433 449.256 183.057 449.361 182.784 449.571C182.511 449.781 182.32 450.006 182.209 450.244L181.254 449.903C181.425 449.506 181.652 449.196 181.936 448.974C182.223 448.75 182.536 448.594 182.874 448.506C183.214 448.415 183.55 448.369 183.879 448.369C184.089 448.369 184.331 448.395 184.604 448.446C184.879 448.494 185.145 448.595 185.401 448.749C185.659 448.902 185.874 449.134 186.044 449.443C186.214 449.753 186.3 450.168 186.3 450.688V455H185.294V454.114H185.243C185.175 454.256 185.061 454.408 184.902 454.57C184.743 454.732 184.531 454.869 184.267 454.983C184.003 455.097 183.68 455.153 183.3 455.153ZM183.453 454.25C183.851 454.25 184.186 454.172 184.459 454.016C184.734 453.859 184.942 453.658 185.081 453.411C185.223 453.163 185.294 452.903 185.294 452.631V451.71C185.251 451.761 185.158 451.808 185.013 451.851C184.871 451.891 184.706 451.926 184.518 451.957C184.334 451.986 184.153 452.011 183.977 452.034C183.804 452.054 183.663 452.071 183.555 452.085C183.294 452.119 183.05 452.175 182.822 452.251C182.598 452.325 182.416 452.437 182.277 452.588C182.141 452.736 182.072 452.937 182.072 453.193C182.072 453.543 182.202 453.807 182.46 453.986C182.722 454.162 183.053 454.25 183.453 454.25ZM189.141 451.062V455H188.135V448.455H189.107V449.477H189.192C189.346 449.145 189.578 448.878 189.891 448.676C190.203 448.472 190.607 448.369 191.101 448.369C191.544 448.369 191.932 448.46 192.265 448.642C192.597 448.821 192.855 449.094 193.04 449.46C193.225 449.824 193.317 450.284 193.317 450.841V455H192.311V450.909C192.311 450.395 192.178 449.994 191.911 449.707C191.644 449.418 191.277 449.273 190.811 449.273C190.49 449.273 190.203 449.342 189.951 449.482C189.701 449.621 189.503 449.824 189.358 450.091C189.213 450.358 189.141 450.682 189.141 451.062ZM197.814 455.136C197.2 455.136 196.672 454.991 196.229 454.702C195.786 454.412 195.445 454.013 195.206 453.504C194.967 452.996 194.848 452.415 194.848 451.761C194.848 451.097 194.97 450.51 195.214 450.001C195.462 449.49 195.805 449.091 196.246 448.804C196.689 448.514 197.206 448.369 197.797 448.369C198.257 448.369 198.672 448.455 199.041 448.625C199.411 448.795 199.713 449.034 199.949 449.341C200.185 449.648 200.331 450.006 200.388 450.415H199.382C199.305 450.116 199.135 449.852 198.871 449.622C198.609 449.389 198.257 449.273 197.814 449.273C197.422 449.273 197.078 449.375 196.783 449.58C196.49 449.781 196.261 450.067 196.097 450.436C195.935 450.803 195.854 451.233 195.854 451.727C195.854 452.233 195.933 452.673 196.092 453.048C196.254 453.423 196.482 453.714 196.774 453.922C197.07 454.129 197.416 454.233 197.814 454.233C198.075 454.233 198.312 454.188 198.526 454.097C198.739 454.006 198.919 453.875 199.067 453.705C199.214 453.534 199.32 453.33 199.382 453.091H200.388C200.331 453.477 200.19 453.825 199.966 454.135C199.744 454.442 199.45 454.686 199.084 454.868C198.72 455.047 198.297 455.136 197.814 455.136ZM204.602 455.136C203.972 455.136 203.428 454.997 202.97 454.719C202.516 454.438 202.165 454.045 201.918 453.543C201.673 453.037 201.551 452.449 201.551 451.778C201.551 451.108 201.673 450.517 201.918 450.006C202.165 449.491 202.509 449.091 202.949 448.804C203.392 448.514 203.909 448.369 204.5 448.369C204.841 448.369 205.178 448.426 205.51 448.54C205.842 448.653 206.145 448.838 206.418 449.094C206.69 449.347 206.908 449.682 207.07 450.099C207.232 450.517 207.312 451.031 207.312 451.642V452.068H202.267V451.199H206.29C206.29 450.83 206.216 450.5 206.068 450.21C205.923 449.92 205.716 449.692 205.446 449.524C205.179 449.357 204.864 449.273 204.5 449.273C204.099 449.273 203.753 449.372 203.46 449.571C203.17 449.767 202.947 450.023 202.791 450.338C202.635 450.653 202.557 450.991 202.557 451.352V451.932C202.557 452.426 202.642 452.845 202.812 453.189C202.986 453.53 203.226 453.79 203.533 453.969C203.839 454.145 204.196 454.233 204.602 454.233C204.866 454.233 205.105 454.196 205.318 454.122C205.534 454.045 205.72 453.932 205.876 453.781C206.033 453.628 206.153 453.437 206.239 453.21L207.21 453.483C207.108 453.812 206.936 454.102 206.695 454.352C206.453 454.599 206.155 454.793 205.8 454.932C205.445 455.068 205.045 455.136 204.602 455.136Z" fill="black"/>
<path d="M19.0568 729V720.273H22.0057C22.6875 720.273 23.2472 720.389 23.6847 720.622C24.1222 720.852 24.446 721.169 24.6562 721.572C24.8665 721.976 24.9716 722.435 24.9716 722.949C24.9716 723.463 24.8665 723.919 24.6562 724.317C24.446 724.714 24.1236 725.027 23.6889 725.254C23.2543 725.479 22.6989 725.591 22.0227 725.591H19.6364V724.636H21.9886C22.4545 724.636 22.8295 724.568 23.1136 724.432C23.4006 724.295 23.608 724.102 23.7358 723.852C23.8665 723.599 23.9318 723.298 23.9318 722.949C23.9318 722.599 23.8665 722.294 23.7358 722.033C23.6051 721.771 23.3963 721.57 23.1094 721.428C22.8224 721.283 22.4432 721.21 21.9716 721.21H20.1136V729H19.0568ZM23.1648 725.08L25.3125 729H24.0852L21.9716 725.08H23.1648ZM26.7326 720.273H27.994L30.9599 727.517H31.0621L34.0281 720.273H35.2894V729H34.3008V722.369H34.2156L31.4883 729H30.5337L27.8065 722.369H27.7212V729H26.7326V720.273ZM40.3232 720.273V729H39.2663V721.381H39.2152L37.0845 722.795V721.722L39.2663 720.273H40.3232Z" fill="black"/>
<path d="M101.057 726V717.273H104.006C104.688 717.273 105.247 717.389 105.685 717.622C106.122 717.852 106.446 718.169 106.656 718.572C106.866 718.976 106.972 719.435 106.972 719.949C106.972 720.463 106.866 720.919 106.656 721.317C106.446 721.714 106.124 722.027 105.689 722.254C105.254 722.479 104.699 722.591 104.023 722.591H101.636V721.636H103.989C104.455 721.636 104.83 721.568 105.114 721.432C105.401 721.295 105.608 721.102 105.736 720.852C105.866 720.599 105.932 720.298 105.932 719.949C105.932 719.599 105.866 719.294 105.736 719.033C105.605 718.771 105.396 718.57 105.109 718.428C104.822 718.283 104.443 718.21 103.972 718.21H102.114V726H101.057ZM105.165 722.08L107.312 726H106.085L103.972 722.08H105.165ZM108.733 717.273H109.994L112.96 724.517H113.062L116.028 717.273H117.289V726H116.301V719.369H116.216L113.488 726H112.534L109.806 719.369H109.721V726H108.733V717.273ZM119.255 726V725.233L122.136 722.08C122.474 721.71 122.752 721.389 122.971 721.116C123.19 720.841 123.352 720.582 123.457 720.341C123.565 720.097 123.619 719.841 123.619 719.574C123.619 719.267 123.545 719.001 123.397 718.777C123.252 718.553 123.053 718.379 122.8 718.257C122.548 718.135 122.263 718.074 121.948 718.074C121.613 718.074 121.32 718.143 121.07 718.283C120.823 718.419 120.631 718.611 120.495 718.858C120.362 719.105 120.295 719.395 120.295 719.727H119.289C119.289 719.216 119.407 718.767 119.643 718.381C119.879 717.994 120.2 717.693 120.606 717.477C121.015 717.261 121.474 717.153 121.982 717.153C122.494 717.153 122.947 717.261 123.342 717.477C123.737 717.693 124.046 717.984 124.271 718.351C124.495 718.717 124.607 719.125 124.607 719.574C124.607 719.895 124.549 720.209 124.433 720.516C124.319 720.82 124.12 721.159 123.836 721.534C123.555 721.906 123.164 722.361 122.664 722.898L120.704 724.994V725.062H124.761V726H119.255Z" fill="black"/>
<path d="M179.057 730V721.273H182.006C182.688 721.273 183.247 721.389 183.685 721.622C184.122 721.852 184.446 722.169 184.656 722.572C184.866 722.976 184.972 723.435 184.972 723.949C184.972 724.463 184.866 724.919 184.656 725.317C184.446 725.714 184.124 726.027 183.689 726.254C183.254 726.479 182.699 726.591 182.023 726.591H179.636V725.636H181.989C182.455 725.636 182.83 725.568 183.114 725.432C183.401 725.295 183.608 725.102 183.736 724.852C183.866 724.599 183.932 724.298 183.932 723.949C183.932 723.599 183.866 723.294 183.736 723.033C183.605 722.771 183.396 722.57 183.109 722.428C182.822 722.283 182.443 722.21 181.972 722.21H180.114V730H179.057ZM183.165 726.08L185.312 730H184.085L181.972 726.08H183.165ZM186.733 721.273H187.994L190.96 728.517H191.062L194.028 721.273H195.289V730H194.301V723.369H194.216L191.488 730H190.534L187.806 723.369H187.721V730H186.733V721.273ZM200.204 730.119C199.641 730.119 199.14 730.023 198.7 729.83C198.262 729.636 197.914 729.368 197.656 729.024C197.4 728.678 197.261 728.276 197.238 727.818H198.312C198.335 728.099 198.431 728.342 198.602 728.547C198.772 728.749 198.995 728.905 199.271 729.016C199.546 729.126 199.852 729.182 200.187 729.182C200.562 729.182 200.894 729.116 201.184 728.986C201.474 728.855 201.701 728.673 201.866 728.44C202.031 728.207 202.113 727.938 202.113 727.631C202.113 727.31 202.033 727.027 201.874 726.783C201.715 726.536 201.482 726.342 201.175 726.203C200.869 726.064 200.494 725.994 200.05 725.994H199.352V725.057H200.05C200.397 725.057 200.701 724.994 200.962 724.869C201.227 724.744 201.433 724.568 201.58 724.341C201.731 724.114 201.806 723.847 201.806 723.54C201.806 723.244 201.741 722.987 201.61 722.768C201.479 722.55 201.295 722.379 201.056 722.257C200.82 722.135 200.542 722.074 200.221 722.074C199.92 722.074 199.636 722.129 199.369 722.24C199.104 722.348 198.888 722.506 198.721 722.713C198.553 722.918 198.462 723.165 198.448 723.455H197.425C197.442 722.997 197.58 722.597 197.839 722.253C198.097 721.906 198.435 721.636 198.853 721.443C199.273 721.25 199.735 721.153 200.238 721.153C200.778 721.153 201.241 721.263 201.627 721.482C202.013 721.697 202.31 721.983 202.518 722.338C202.725 722.693 202.829 723.077 202.829 723.489C202.829 723.98 202.7 724.399 202.441 724.746C202.185 725.092 201.837 725.332 201.397 725.466V725.534C201.948 725.625 202.379 725.859 202.688 726.237C202.998 726.612 203.153 727.077 203.153 727.631C203.153 728.105 203.023 728.531 202.765 728.909C202.509 729.284 202.16 729.58 201.717 729.795C201.273 730.011 200.769 730.119 200.204 730.119Z" fill="black"/>
<path d="M256.057 730V721.273H259.006C259.688 721.273 260.247 721.389 260.685 721.622C261.122 721.852 261.446 722.169 261.656 722.572C261.866 722.976 261.972 723.435 261.972 723.949C261.972 724.463 261.866 724.919 261.656 725.317C261.446 725.714 261.124 726.027 260.689 726.254C260.254 726.479 259.699 726.591 259.023 726.591H256.636V725.636H258.989C259.455 725.636 259.83 725.568 260.114 725.432C260.401 725.295 260.608 725.102 260.736 724.852C260.866 724.599 260.932 724.298 260.932 723.949C260.932 723.599 260.866 723.294 260.736 723.033C260.605 722.771 260.396 722.57 260.109 722.428C259.822 722.283 259.443 722.21 258.972 722.21H257.114V730H256.057ZM260.165 726.08L262.312 730H261.085L258.972 726.08H260.165ZM263.733 721.273H264.994L267.96 728.517H268.062L271.028 721.273H272.289V730H271.301V723.369H271.216L268.488 730H267.534L264.806 723.369H264.721V730H263.733V721.273ZM274.05 728.21V727.341L277.886 721.273H278.516V722.619H278.09L275.192 727.205V727.273H280.357V728.21H274.05ZM278.158 730V727.946V727.541V721.273H279.164V730H278.158Z" fill="black"/>
<path d="M334.057 732V723.273H337.006C337.688 723.273 338.247 723.389 338.685 723.622C339.122 723.852 339.446 724.169 339.656 724.572C339.866 724.976 339.972 725.435 339.972 725.949C339.972 726.463 339.866 726.919 339.656 727.317C339.446 727.714 339.124 728.027 338.689 728.254C338.254 728.479 337.699 728.591 337.023 728.591H334.636V727.636H336.989C337.455 727.636 337.83 727.568 338.114 727.432C338.401 727.295 338.608 727.102 338.736 726.852C338.866 726.599 338.932 726.298 338.932 725.949C338.932 725.599 338.866 725.294 338.736 725.033C338.605 724.771 338.396 724.57 338.109 724.428C337.822 724.283 337.443 724.21 336.972 724.21H335.114V732H334.057ZM338.165 728.08L340.312 732H339.085L336.972 728.08H338.165ZM341.733 723.273H342.994L345.96 730.517H346.062L349.028 723.273H350.289V732H349.301V725.369H349.216L346.488 732H345.534L342.806 725.369H342.721V732H341.733V723.273ZM352.05 730.21V729.341L355.886 723.273H356.516V724.619H356.09L353.192 729.205V729.273H358.357V730.21H352.05ZM356.158 732V729.946V729.541V723.273H357.164V732H356.158Z" fill="black"/>
<path d="M484.977 724.273V733H483.955L479.199 726.148H479.114V733H478.057V724.273H479.08L483.852 731.142H483.938V724.273H484.977ZM491.865 726.455C491.814 726.023 491.606 725.688 491.243 725.449C490.879 725.21 490.433 725.091 489.904 725.091C489.518 725.091 489.18 725.153 488.89 725.278C488.603 725.403 488.379 725.575 488.217 725.794C488.058 726.013 487.978 726.261 487.978 726.54C487.978 726.773 488.034 726.973 488.145 727.141C488.258 727.305 488.403 727.443 488.579 727.554C488.755 727.662 488.94 727.751 489.133 727.822C489.326 727.891 489.504 727.946 489.666 727.989L490.552 728.227C490.779 728.287 491.032 728.369 491.311 728.474C491.592 728.58 491.86 728.723 492.116 728.905C492.375 729.084 492.588 729.314 492.755 729.595C492.923 729.876 493.007 730.222 493.007 730.631C493.007 731.102 492.883 731.528 492.636 731.909C492.392 732.29 492.034 732.592 491.562 732.817C491.093 733.041 490.524 733.153 489.853 733.153C489.228 733.153 488.687 733.053 488.23 732.851C487.775 732.649 487.417 732.368 487.156 732.007C486.897 731.646 486.751 731.227 486.717 730.75H487.808C487.836 731.08 487.947 731.352 488.14 731.568C488.336 731.781 488.583 731.94 488.882 732.045C489.183 732.148 489.507 732.199 489.853 732.199C490.257 732.199 490.619 732.134 490.94 732.003C491.261 731.869 491.515 731.685 491.703 731.449C491.89 731.21 491.984 730.932 491.984 730.614C491.984 730.324 491.903 730.088 491.741 729.906C491.579 729.724 491.366 729.577 491.102 729.463C490.838 729.349 490.552 729.25 490.245 729.165L489.172 728.858C488.49 728.662 487.95 728.382 487.552 728.018C487.154 727.655 486.956 727.179 486.956 726.591C486.956 726.102 487.088 725.676 487.352 725.312C487.619 724.946 487.977 724.662 488.426 724.46C488.877 724.256 489.382 724.153 489.939 724.153C490.501 724.153 491.001 724.254 491.439 724.456C491.876 724.655 492.223 724.928 492.478 725.274C492.737 725.621 492.873 726.014 492.887 726.455H491.865Z" fill="black"/>
<path d="M305.642 894L303.256 885.273H304.33L306.153 892.381H306.239L308.097 885.273H309.29L311.148 892.381H311.233L313.057 885.273H314.131L311.744 894H310.653L308.727 887.045H308.659L306.733 894H305.642ZM316.628 894.153C316.213 894.153 315.837 894.075 315.499 893.919C315.161 893.76 314.892 893.531 314.693 893.233C314.494 892.932 314.395 892.568 314.395 892.142C314.395 891.767 314.469 891.463 314.616 891.23C314.764 890.994 314.962 890.81 315.209 890.676C315.456 890.543 315.729 890.443 316.027 890.378C316.328 890.31 316.631 890.256 316.935 890.216C317.332 890.165 317.655 890.126 317.902 890.101C318.152 890.072 318.334 890.026 318.447 889.96C318.564 889.895 318.622 889.781 318.622 889.619V889.585C318.622 889.165 318.507 888.838 318.277 888.605C318.05 888.372 317.705 888.256 317.241 888.256C316.761 888.256 316.385 888.361 316.112 888.571C315.839 888.781 315.648 889.006 315.537 889.244L314.582 888.903C314.753 888.506 314.98 888.196 315.264 887.974C315.551 887.75 315.864 887.594 316.202 887.506C316.543 887.415 316.878 887.369 317.207 887.369C317.418 887.369 317.659 887.395 317.932 887.446C318.207 887.494 318.473 887.595 318.729 887.749C318.987 887.902 319.202 888.134 319.372 888.443C319.543 888.753 319.628 889.168 319.628 889.688V894H318.622V893.114H318.571C318.503 893.256 318.389 893.408 318.23 893.57C318.071 893.732 317.859 893.869 317.595 893.983C317.331 894.097 317.009 894.153 316.628 894.153ZM316.781 893.25C317.179 893.25 317.514 893.172 317.787 893.016C318.063 892.859 318.27 892.658 318.409 892.411C318.551 892.163 318.622 891.903 318.622 891.631V890.71C318.58 890.761 318.486 890.808 318.341 890.851C318.199 890.891 318.034 890.926 317.847 890.957C317.662 890.986 317.482 891.011 317.305 891.034C317.132 891.054 316.991 891.071 316.884 891.085C316.622 891.119 316.378 891.175 316.151 891.251C315.926 891.325 315.744 891.437 315.605 891.588C315.469 891.736 315.401 891.937 315.401 892.193C315.401 892.543 315.53 892.807 315.788 892.986C316.05 893.162 316.381 893.25 316.781 893.25ZM321.463 894V887.455H322.469V894H321.463ZM321.975 886.364C321.779 886.364 321.61 886.297 321.468 886.163C321.328 886.03 321.259 885.869 321.259 885.682C321.259 885.494 321.328 885.334 321.468 885.2C321.61 885.067 321.779 885 321.975 885C322.171 885 322.338 885.067 322.478 885.2C322.62 885.334 322.691 885.494 322.691 885.682C322.691 885.869 322.62 886.03 322.478 886.163C322.338 886.297 322.171 886.364 321.975 886.364ZM327.158 887.455V888.307H323.766V887.455H327.158ZM324.754 885.886H325.76V892.125C325.76 892.409 325.801 892.622 325.884 892.764C325.969 892.903 326.077 892.997 326.207 893.045C326.341 893.091 326.482 893.114 326.629 893.114C326.74 893.114 326.831 893.108 326.902 893.097C326.973 893.082 327.03 893.071 327.072 893.062L327.277 893.966C327.209 893.991 327.114 894.017 326.991 894.043C326.869 894.071 326.714 894.085 326.527 894.085C326.243 894.085 325.964 894.024 325.692 893.902C325.422 893.78 325.197 893.594 325.018 893.344C324.842 893.094 324.754 892.778 324.754 892.398V885.886ZM328.67 894V887.455H329.676V894H328.67ZM329.182 886.364C328.986 886.364 328.817 886.297 328.675 886.163C328.536 886.03 328.466 885.869 328.466 885.682C328.466 885.494 328.536 885.334 328.675 885.2C328.817 885.067 328.986 885 329.182 885C329.378 885 329.545 885.067 329.685 885.2C329.827 885.334 329.898 885.494 329.898 885.682C329.898 885.869 329.827 886.03 329.685 886.163C329.545 886.297 329.378 886.364 329.182 886.364ZM332.524 890.062V894H331.518V887.455H332.49V888.477H332.575C332.728 888.145 332.961 887.878 333.274 887.676C333.586 887.472 333.99 887.369 334.484 887.369C334.927 887.369 335.315 887.46 335.647 887.642C335.98 887.821 336.238 888.094 336.423 888.46C336.608 888.824 336.7 889.284 336.7 889.841V894H335.694V889.909C335.694 889.395 335.561 888.994 335.294 888.707C335.027 888.418 334.66 888.273 334.194 888.273C333.873 888.273 333.586 888.342 333.333 888.482C333.083 888.621 332.886 888.824 332.741 889.091C332.596 889.358 332.524 889.682 332.524 890.062ZM341.18 896.591C340.694 896.591 340.276 896.528 339.927 896.403C339.577 896.281 339.286 896.119 339.053 895.918C338.823 895.719 338.64 895.506 338.504 895.278L339.305 894.716C339.396 894.835 339.511 894.972 339.65 895.125C339.789 895.281 339.979 895.416 340.221 895.53C340.465 895.646 340.785 895.705 341.18 895.705C341.708 895.705 342.144 895.577 342.488 895.321C342.832 895.065 343.004 894.665 343.004 894.119V892.79H342.918C342.844 892.909 342.739 893.057 342.603 893.233C342.469 893.406 342.276 893.561 342.023 893.697C341.773 893.831 341.435 893.898 341.009 893.898C340.481 893.898 340.006 893.773 339.586 893.523C339.168 893.273 338.837 892.909 338.593 892.432C338.352 891.955 338.231 891.375 338.231 890.693C338.231 890.023 338.349 889.439 338.585 888.942C338.82 888.442 339.148 888.055 339.569 887.783C339.989 887.507 340.475 887.369 341.026 887.369C341.452 887.369 341.79 887.44 342.04 887.582C342.293 887.722 342.487 887.881 342.62 888.06C342.756 888.236 342.862 888.381 342.935 888.494H343.038V887.455H344.009V894.188C344.009 894.75 343.881 895.207 343.626 895.56C343.373 895.915 343.032 896.175 342.603 896.339C342.177 896.507 341.702 896.591 341.18 896.591ZM341.146 892.994C341.549 892.994 341.89 892.902 342.168 892.717C342.447 892.533 342.658 892.267 342.803 891.92C342.948 891.574 343.021 891.159 343.021 890.676C343.021 890.205 342.95 889.788 342.808 889.428C342.665 889.067 342.455 888.784 342.177 888.58C341.898 888.375 341.555 888.273 341.146 888.273C340.719 888.273 340.364 888.381 340.08 888.597C339.799 888.812 339.587 889.102 339.445 889.466C339.306 889.83 339.237 890.233 339.237 890.676C339.237 891.131 339.308 891.533 339.45 891.882C339.594 892.229 339.808 892.501 340.089 892.7C340.373 892.896 340.725 892.994 341.146 892.994ZM349.225 894V887.455H350.197V888.443H350.265C350.384 888.119 350.6 887.857 350.913 887.655C351.225 887.453 351.577 887.352 351.969 887.352C352.043 887.352 352.136 887.354 352.246 887.357C352.357 887.359 352.441 887.364 352.498 887.369V888.392C352.464 888.384 352.386 888.371 352.263 888.354C352.144 888.334 352.018 888.324 351.884 888.324C351.566 888.324 351.282 888.391 351.032 888.524C350.785 888.655 350.589 888.837 350.444 889.07C350.302 889.3 350.231 889.562 350.231 889.858V894H349.225ZM353.69 894V887.455H354.662V888.477H354.747C354.883 888.128 355.103 887.857 355.407 887.663C355.711 887.467 356.076 887.369 356.502 887.369C356.934 887.369 357.294 887.467 357.581 887.663C357.87 887.857 358.096 888.128 358.258 888.477H358.326C358.494 888.139 358.745 887.871 359.081 887.672C359.416 887.47 359.818 887.369 360.287 887.369C360.872 887.369 361.35 887.553 361.723 887.919C362.095 888.283 362.281 888.849 362.281 889.619V894H361.275V889.619C361.275 889.136 361.143 888.791 360.879 888.584C360.615 888.376 360.304 888.273 359.946 888.273C359.485 888.273 359.129 888.412 358.876 888.69C358.623 888.966 358.497 889.315 358.497 889.739V894H357.474V889.517C357.474 889.145 357.353 888.845 357.112 888.618C356.87 888.388 356.559 888.273 356.179 888.273C355.917 888.273 355.673 888.342 355.446 888.482C355.221 888.621 355.039 888.814 354.9 889.061C354.764 889.305 354.696 889.588 354.696 889.909V894H353.69Z" fill="black"/>
<path d="M309.83 844.455C309.778 844.023 309.571 843.688 309.207 843.449C308.844 843.21 308.398 843.091 307.869 843.091C307.483 843.091 307.145 843.153 306.855 843.278C306.568 843.403 306.344 843.575 306.182 843.794C306.023 844.013 305.943 844.261 305.943 844.54C305.943 844.773 305.999 844.973 306.109 845.141C306.223 845.305 306.368 845.443 306.544 845.554C306.72 845.662 306.905 845.751 307.098 845.822C307.291 845.891 307.469 845.946 307.631 845.989L308.517 846.227C308.744 846.287 308.997 846.369 309.276 846.474C309.557 846.58 309.825 846.723 310.081 846.905C310.339 847.084 310.553 847.314 310.72 847.595C310.888 847.876 310.972 848.222 310.972 848.631C310.972 849.102 310.848 849.528 310.601 849.909C310.357 850.29 309.999 850.592 309.527 850.817C309.058 851.041 308.489 851.153 307.818 851.153C307.193 851.153 306.652 851.053 306.195 850.851C305.74 850.649 305.382 850.368 305.121 850.007C304.862 849.646 304.716 849.227 304.682 848.75H305.773C305.801 849.08 305.912 849.352 306.105 849.568C306.301 849.781 306.548 849.94 306.847 850.045C307.148 850.148 307.472 850.199 307.818 850.199C308.222 850.199 308.584 850.134 308.905 850.003C309.226 849.869 309.48 849.685 309.668 849.449C309.855 849.21 309.949 848.932 309.949 848.614C309.949 848.324 309.868 848.088 309.706 847.906C309.544 847.724 309.331 847.577 309.067 847.463C308.803 847.349 308.517 847.25 308.21 847.165L307.136 846.858C306.455 846.662 305.915 846.382 305.517 846.018C305.119 845.655 304.92 845.179 304.92 844.591C304.92 844.102 305.053 843.676 305.317 843.312C305.584 842.946 305.942 842.662 306.391 842.46C306.842 842.256 307.347 842.153 307.903 842.153C308.466 842.153 308.966 842.254 309.403 842.456C309.841 842.655 310.188 842.928 310.443 843.274C310.702 843.621 310.838 844.014 310.852 844.455H309.83ZM315.419 844.455V845.307H312.027V844.455H315.419ZM313.016 842.886H314.022V849.125C314.022 849.409 314.063 849.622 314.145 849.764C314.23 849.903 314.338 849.997 314.469 850.045C314.603 850.091 314.743 850.114 314.891 850.114C315.002 850.114 315.093 850.108 315.164 850.097C315.235 850.082 315.292 850.071 315.334 850.062L315.539 850.966C315.471 850.991 315.375 851.017 315.253 851.043C315.131 851.071 314.976 851.085 314.789 851.085C314.505 851.085 314.226 851.024 313.953 850.902C313.684 850.78 313.459 850.594 313.28 850.344C313.104 850.094 313.016 849.778 313.016 849.398V842.886ZM318.858 851.153C318.444 851.153 318.067 851.075 317.729 850.919C317.391 850.76 317.123 850.531 316.924 850.233C316.725 849.932 316.625 849.568 316.625 849.142C316.625 848.767 316.699 848.463 316.847 848.23C316.995 847.994 317.192 847.81 317.439 847.676C317.686 847.543 317.959 847.443 318.257 847.378C318.559 847.31 318.861 847.256 319.165 847.216C319.563 847.165 319.885 847.126 320.132 847.101C320.382 847.072 320.564 847.026 320.678 846.96C320.794 846.895 320.853 846.781 320.853 846.619V846.585C320.853 846.165 320.738 845.838 320.507 845.605C320.28 845.372 319.935 845.256 319.472 845.256C318.992 845.256 318.615 845.361 318.343 845.571C318.07 845.781 317.878 846.006 317.767 846.244L316.813 845.903C316.983 845.506 317.211 845.196 317.495 844.974C317.782 844.75 318.094 844.594 318.432 844.506C318.773 844.415 319.108 844.369 319.438 844.369C319.648 844.369 319.89 844.395 320.162 844.446C320.438 844.494 320.703 844.595 320.959 844.749C321.218 844.902 321.432 845.134 321.603 845.443C321.773 845.753 321.858 846.168 321.858 846.688V851H320.853V850.114H320.801C320.733 850.256 320.62 850.408 320.461 850.57C320.301 850.732 320.09 850.869 319.826 850.983C319.561 851.097 319.239 851.153 318.858 851.153ZM319.012 850.25C319.409 850.25 319.745 850.172 320.017 850.016C320.293 849.859 320.5 849.658 320.64 849.411C320.782 849.163 320.853 848.903 320.853 848.631V847.71C320.81 847.761 320.716 847.808 320.571 847.851C320.429 847.891 320.265 847.926 320.077 847.957C319.892 847.986 319.712 848.011 319.536 848.034C319.363 848.054 319.222 848.071 319.114 848.085C318.853 848.119 318.608 848.175 318.381 848.251C318.157 848.325 317.975 848.437 317.836 848.588C317.699 848.736 317.631 848.937 317.631 849.193C317.631 849.543 317.76 849.807 318.019 849.986C318.28 850.162 318.611 850.25 319.012 850.25ZM326.609 844.455V845.307H323.08V844.455H326.609ZM324.137 851V843.551C324.137 843.176 324.225 842.864 324.401 842.614C324.577 842.364 324.806 842.176 325.087 842.051C325.369 841.926 325.665 841.864 325.978 841.864C326.225 841.864 326.427 841.884 326.583 841.923C326.739 841.963 326.856 842 326.933 842.034L326.643 842.903C326.592 842.886 326.521 842.865 326.43 842.839C326.342 842.814 326.225 842.801 326.08 842.801C325.748 842.801 325.508 842.885 325.36 843.053C325.215 843.22 325.143 843.466 325.143 843.79V851H324.137ZM330.933 844.455V845.307H327.404V844.455H330.933ZM328.461 851V843.551C328.461 843.176 328.549 842.864 328.725 842.614C328.902 842.364 329.13 842.176 329.412 842.051C329.693 841.926 329.99 841.864 330.302 841.864C330.549 841.864 330.751 841.884 330.907 841.923C331.064 841.963 331.18 842 331.257 842.034L330.967 842.903C330.916 842.886 330.845 842.865 330.754 842.839C330.666 842.814 330.549 842.801 330.404 842.801C330.072 842.801 329.832 842.885 329.684 843.053C329.539 843.22 329.467 843.466 329.467 843.79V851H328.461ZM337.439 851L335.053 842.273H336.126L337.95 849.381H338.036L339.893 842.273H341.087L342.945 849.381H343.03L344.854 842.273H345.928L343.541 851H342.45L340.524 844.045H340.456L338.53 851H337.439ZM353.857 845H352.8C352.738 844.696 352.628 844.429 352.472 844.199C352.319 843.969 352.131 843.776 351.909 843.619C351.691 843.46 351.448 843.341 351.181 843.261C350.914 843.182 350.635 843.142 350.346 843.142C349.817 843.142 349.338 843.276 348.909 843.543C348.483 843.81 348.144 844.203 347.891 844.723C347.641 845.243 347.516 845.881 347.516 846.636C347.516 847.392 347.641 848.03 347.891 848.55C348.144 849.07 348.483 849.463 348.909 849.73C349.338 849.997 349.817 850.131 350.346 850.131C350.635 850.131 350.914 850.091 351.181 850.011C351.448 849.932 351.691 849.814 351.909 849.658C352.131 849.499 352.319 849.304 352.472 849.074C352.628 848.841 352.738 848.574 352.8 848.273H353.857C353.777 848.719 353.632 849.118 353.422 849.47C353.212 849.822 352.951 850.122 352.638 850.369C352.326 850.614 351.975 850.8 351.586 850.928C351.199 851.055 350.786 851.119 350.346 851.119C349.601 851.119 348.939 850.938 348.36 850.574C347.78 850.21 347.324 849.693 346.992 849.023C346.659 848.352 346.493 847.557 346.493 846.636C346.493 845.716 346.659 844.92 346.992 844.25C347.324 843.58 347.78 843.062 348.36 842.699C348.939 842.335 349.601 842.153 350.346 842.153C350.786 842.153 351.199 842.217 351.586 842.345C351.975 842.473 352.326 842.661 352.638 842.908C352.951 843.152 353.212 843.45 353.422 843.803C353.632 844.152 353.777 844.551 353.857 845Z" fill="black"/>
<path d="M19.0568 729V720.273H22.0057C22.6875 720.273 23.2472 720.389 23.6847 720.622C24.1222 720.852 24.446 721.169 24.6562 721.572C24.8665 721.976 24.9716 722.435 24.9716 722.949C24.9716 723.463 24.8665 723.919 24.6562 724.317C24.446 724.714 24.1236 725.027 23.6889 725.254C23.2543 725.479 22.6989 725.591 22.0227 725.591H19.6364V724.636H21.9886C22.4545 724.636 22.8295 724.568 23.1136 724.432C23.4006 724.295 23.608 724.102 23.7358 723.852C23.8665 723.599 23.9318 723.298 23.9318 722.949C23.9318 722.599 23.8665 722.294 23.7358 722.033C23.6051 721.771 23.3963 721.57 23.1094 721.428C22.8224 721.283 22.4432 721.21 21.9716 721.21H20.1136V729H19.0568ZM23.1648 725.08L25.3125 729H24.0852L21.9716 725.08H23.1648ZM26.7326 720.273H27.994L30.9599 727.517H31.0621L34.0281 720.273H35.2894V729H34.3008V722.369H34.2156L31.4883 729H30.5337L27.8065 722.369H27.7212V729H26.7326V720.273ZM40.3232 720.273V729H39.2663V721.381H39.2152L37.0845 722.795V721.722L39.2663 720.273H40.3232Z" fill="black"/>
<rect x="383" y="1033" width="76" height="1" fill="black"/>
<path d="M416.057 807V798.273H417.114V806.062H421.17V807H416.057ZM429.49 801H428.433C428.37 800.696 428.261 800.429 428.105 800.199C427.951 799.969 427.764 799.776 427.542 799.619C427.324 799.46 427.081 799.341 426.814 799.261C426.547 799.182 426.268 799.142 425.978 799.142C425.45 799.142 424.971 799.276 424.542 799.543C424.116 799.81 423.777 800.203 423.524 800.723C423.274 801.243 423.149 801.881 423.149 802.636C423.149 803.392 423.274 804.03 423.524 804.55C423.777 805.07 424.116 805.463 424.542 805.73C424.971 805.997 425.45 806.131 425.978 806.131C426.268 806.131 426.547 806.091 426.814 806.011C427.081 805.932 427.324 805.814 427.542 805.658C427.764 805.499 427.951 805.304 428.105 805.074C428.261 804.841 428.37 804.574 428.433 804.273H429.49C429.41 804.719 429.265 805.118 429.055 805.47C428.845 805.822 428.583 806.122 428.271 806.369C427.958 806.614 427.608 806.8 427.218 806.928C426.832 807.055 426.419 807.119 425.978 807.119C425.234 807.119 424.572 806.938 423.993 806.574C423.413 806.21 422.957 805.693 422.625 805.023C422.292 804.352 422.126 803.557 422.126 802.636C422.126 801.716 422.292 800.92 422.625 800.25C422.957 799.58 423.413 799.062 423.993 798.699C424.572 798.335 425.234 798.153 425.978 798.153C426.419 798.153 426.832 798.217 427.218 798.345C427.608 798.473 427.958 798.661 428.271 798.908C428.583 799.152 428.845 799.45 429.055 799.803C429.265 800.152 429.41 800.551 429.49 801ZM434.112 798.273V807H433.055V799.381H433.004L430.874 800.795V799.722L433.055 798.273H434.112Z" fill="black"/>
<rect x="298" y="761" width="2" height="38" fill="black"/>
<path d="M480.83 613.455C480.778 613.023 480.571 612.688 480.207 612.449C479.844 612.21 479.398 612.091 478.869 612.091C478.483 612.091 478.145 612.153 477.855 612.278C477.568 612.403 477.344 612.575 477.182 612.794C477.023 613.013 476.943 613.261 476.943 613.54C476.943 613.773 476.999 613.973 477.109 614.141C477.223 614.305 477.368 614.443 477.544 614.554C477.72 614.662 477.905 614.751 478.098 614.822C478.291 614.891 478.469 614.946 478.631 614.989L479.517 615.227C479.744 615.287 479.997 615.369 480.276 615.474C480.557 615.58 480.825 615.723 481.081 615.905C481.339 616.084 481.553 616.314 481.72 616.595C481.888 616.876 481.972 617.222 481.972 617.631C481.972 618.102 481.848 618.528 481.601 618.909C481.357 619.29 480.999 619.592 480.527 619.817C480.058 620.041 479.489 620.153 478.818 620.153C478.193 620.153 477.652 620.053 477.195 619.851C476.74 619.649 476.382 619.368 476.121 619.007C475.862 618.646 475.716 618.227 475.682 617.75H476.773C476.801 618.08 476.912 618.352 477.105 618.568C477.301 618.781 477.548 618.94 477.847 619.045C478.148 619.148 478.472 619.199 478.818 619.199C479.222 619.199 479.584 619.134 479.905 619.003C480.226 618.869 480.48 618.685 480.668 618.449C480.855 618.21 480.949 617.932 480.949 617.614C480.949 617.324 480.868 617.088 480.706 616.906C480.544 616.724 480.331 616.577 480.067 616.463C479.803 616.349 479.517 616.25 479.21 616.165L478.136 615.858C477.455 615.662 476.915 615.382 476.517 615.018C476.119 614.655 475.92 614.179 475.92 613.591C475.92 613.102 476.053 612.676 476.317 612.312C476.584 611.946 476.942 611.662 477.391 611.46C477.842 611.256 478.347 611.153 478.903 611.153C479.466 611.153 479.966 611.254 480.403 611.456C480.841 611.655 481.188 611.928 481.443 612.274C481.702 612.621 481.838 613.014 481.852 613.455H480.83ZM483.709 620V611.273H488.976V612.21H484.766V615.159H488.703V616.097H484.766V619.062H489.044V620H483.709Z" fill="black"/>
<path d="M988.057 740V731.273H991.006C991.688 731.273 992.247 731.389 992.685 731.622C993.122 731.852 993.446 732.169 993.656 732.572C993.866 732.976 993.972 733.435 993.972 733.949C993.972 734.463 993.866 734.919 993.656 735.317C993.446 735.714 993.124 736.027 992.689 736.254C992.254 736.479 991.699 736.591 991.023 736.591H988.636V735.636H990.989C991.455 735.636 991.83 735.568 992.114 735.432C992.401 735.295 992.608 735.102 992.736 734.852C992.866 734.599 992.932 734.298 992.932 733.949C992.932 733.599 992.866 733.294 992.736 733.033C992.605 732.771 992.396 732.57 992.109 732.428C991.822 732.283 991.443 732.21 990.972 732.21H989.114V740H988.057ZM992.165 736.08L994.312 740H993.085L990.972 736.08H992.165ZM995.733 731.273H996.994L999.96 738.517H1000.06L1003.03 731.273H1004.29V740H1003.3V733.369H1003.22L1000.49 740H999.534L996.806 733.369H996.721V740H995.733V731.273ZM1006.53 740L1010.43 732.278V732.21H1005.93V731.273H1011.52V732.261L1007.64 740H1006.53Z" fill="black"/>
<rect x="1057" y="614" width="108" height="73" fill="#D9D9D9"/>
<path d="M1103.83 642.455C1103.78 642.023 1103.57 641.688 1103.21 641.449C1102.84 641.21 1102.4 641.091 1101.87 641.091C1101.48 641.091 1101.14 641.153 1100.86 641.278C1100.57 641.403 1100.34 641.575 1100.18 641.794C1100.02 642.013 1099.94 642.261 1099.94 642.54C1099.94 642.773 1100 642.973 1100.11 643.141C1100.22 643.305 1100.37 643.443 1100.54 643.554C1100.72 643.662 1100.9 643.751 1101.1 643.822C1101.29 643.891 1101.47 643.946 1101.63 643.989L1102.52 644.227C1102.74 644.287 1103 644.369 1103.28 644.474C1103.56 644.58 1103.83 644.723 1104.08 644.905C1104.34 645.084 1104.55 645.314 1104.72 645.595C1104.89 645.876 1104.97 646.222 1104.97 646.631C1104.97 647.102 1104.85 647.528 1104.6 647.909C1104.36 648.29 1104 648.592 1103.53 648.817C1103.06 649.041 1102.49 649.153 1101.82 649.153C1101.19 649.153 1100.65 649.053 1100.19 648.851C1099.74 648.649 1099.38 648.368 1099.12 648.007C1098.86 647.646 1098.72 647.227 1098.68 646.75H1099.77C1099.8 647.08 1099.91 647.352 1100.11 647.568C1100.3 647.781 1100.55 647.94 1100.85 648.045C1101.15 648.148 1101.47 648.199 1101.82 648.199C1102.22 648.199 1102.58 648.134 1102.9 648.003C1103.23 647.869 1103.48 647.685 1103.67 647.449C1103.86 647.21 1103.95 646.932 1103.95 646.614C1103.95 646.324 1103.87 646.088 1103.71 645.906C1103.54 645.724 1103.33 645.577 1103.07 645.463C1102.8 645.349 1102.52 645.25 1102.21 645.165L1101.14 644.858C1100.45 644.662 1099.91 644.382 1099.52 644.018C1099.12 643.655 1098.92 643.179 1098.92 642.591C1098.92 642.102 1099.05 641.676 1099.32 641.312C1099.58 640.946 1099.94 640.662 1100.39 640.46C1100.84 640.256 1101.35 640.153 1101.9 640.153C1102.47 640.153 1102.97 640.254 1103.4 640.456C1103.84 640.655 1104.19 640.928 1104.44 641.274C1104.7 641.621 1104.84 642.014 1104.85 642.455H1103.83ZM1107.07 649H1105.96L1109.16 640.273H1110.25L1113.46 649H1112.35L1109.74 641.653H1109.68L1107.07 649ZM1107.48 645.591H1111.94V646.528H1107.48V645.591ZM1118.04 649V648.233L1120.92 645.08C1121.26 644.71 1121.54 644.389 1121.76 644.116C1121.97 643.841 1122.14 643.582 1122.24 643.341C1122.35 643.097 1122.4 642.841 1122.4 642.574C1122.4 642.267 1122.33 642.001 1122.18 641.777C1122.04 641.553 1121.84 641.379 1121.59 641.257C1121.33 641.135 1121.05 641.074 1120.73 641.074C1120.4 641.074 1120.11 641.143 1119.86 641.283C1119.61 641.419 1119.42 641.611 1119.28 641.858C1119.15 642.105 1119.08 642.395 1119.08 642.727H1118.07C1118.07 642.216 1118.19 641.767 1118.43 641.381C1118.66 640.994 1118.98 640.693 1119.39 640.477C1119.8 640.261 1120.26 640.153 1120.77 640.153C1121.28 640.153 1121.73 640.261 1122.13 640.477C1122.52 640.693 1122.83 640.984 1123.06 641.351C1123.28 641.717 1123.39 642.125 1123.39 642.574C1123.39 642.895 1123.33 643.209 1123.22 643.516C1123.1 643.82 1122.91 644.159 1122.62 644.534C1122.34 644.906 1121.95 645.361 1121.45 645.898L1119.49 647.994V648.062H1123.55V649H1118.04Z" fill="black"/>
<path d="M928.057 519V510.273H931.006C931.688 510.273 932.247 510.389 932.685 510.622C933.122 510.852 933.446 511.169 933.656 511.572C933.866 511.976 933.972 512.435 933.972 512.949C933.972 513.463 933.866 513.919 933.656 514.317C933.446 514.714 933.124 515.027 932.689 515.254C932.254 515.479 931.699 515.591 931.023 515.591H928.636V514.636H930.989C931.455 514.636 931.83 514.568 932.114 514.432C932.401 514.295 932.608 514.102 932.736 513.852C932.866 513.599 932.932 513.298 932.932 512.949C932.932 512.599 932.866 512.294 932.736 512.033C932.605 511.771 932.396 511.57 932.109 511.428C931.822 511.283 931.443 511.21 930.972 511.21H929.114V519H928.057ZM932.165 515.08L934.312 519H933.085L930.972 515.08H932.165ZM935.733 510.273H936.994L939.96 517.517H940.062L943.028 510.273H944.289V519H943.301V512.369H943.216L940.488 519H939.534L936.806 512.369H936.721V519H935.733V510.273ZM949.033 510.153C949.391 510.156 949.749 510.224 950.107 510.358C950.465 510.491 950.792 510.713 951.087 511.023C951.383 511.33 951.62 511.749 951.799 512.28C951.978 512.811 952.067 513.477 952.067 514.278C952.067 515.054 951.994 515.743 951.846 516.345C951.701 516.945 951.491 517.45 951.215 517.862C950.942 518.274 950.61 518.587 950.218 518.8C949.829 519.013 949.388 519.119 948.897 519.119C948.408 519.119 947.972 519.023 947.589 518.83C947.208 518.634 946.896 518.362 946.651 518.016C946.41 517.666 946.255 517.261 946.187 516.801H947.227C947.32 517.202 947.506 517.533 947.785 517.794C948.066 518.053 948.437 518.182 948.897 518.182C949.57 518.182 950.102 517.888 950.491 517.3C950.883 516.712 951.079 515.881 951.079 514.807H951.011C950.852 515.045 950.663 515.251 950.444 515.425C950.225 515.598 949.982 515.732 949.715 515.825C949.448 515.919 949.164 515.966 948.863 515.966C948.363 515.966 947.904 515.842 947.487 515.595C947.072 515.345 946.739 515.003 946.489 514.568C946.242 514.131 946.119 513.631 946.119 513.068C946.119 512.534 946.238 512.045 946.477 511.602C946.718 511.156 947.056 510.801 947.491 510.537C947.928 510.273 948.442 510.145 949.033 510.153ZM949.033 511.091C948.675 511.091 948.353 511.18 948.066 511.359C947.782 511.536 947.556 511.774 947.388 512.075C947.224 512.374 947.141 512.705 947.141 513.068C947.141 513.432 947.221 513.763 947.38 514.061C947.542 514.357 947.762 514.592 948.04 514.768C948.322 514.942 948.641 515.028 948.999 515.028C949.269 515.028 949.521 514.976 949.754 514.871C949.987 514.763 950.19 514.616 950.363 514.432C950.539 514.244 950.677 514.033 950.776 513.797C950.876 513.558 950.925 513.31 950.925 513.051C950.925 512.71 950.843 512.391 950.678 512.092C950.516 511.794 950.292 511.553 950.005 511.368C949.721 511.183 949.397 511.091 949.033 511.091Z" fill="black"/>
<rect x="913.25" y="0.25" width="0.5" height="56.5" fill="#D9D9D9" stroke="black" stroke-width="0.5"/>
<rect x="903" y="47" width="10" height="10" fill="#D9D9D9"/>
<rect x="273.5" y="271.5" width="439" height="289" fill="#F5F5F5" stroke="#D9D9D9"/>
<path d="M469.057 424V415.273H472.006C472.69 415.273 473.25 415.396 473.685 415.643C474.122 415.888 474.446 416.219 474.656 416.636C474.866 417.054 474.972 417.52 474.972 418.034C474.972 418.548 474.866 419.016 474.656 419.436C474.449 419.857 474.128 420.192 473.693 420.442C473.259 420.689 472.702 420.812 472.023 420.812H469.909V419.875H471.989C472.457 419.875 472.834 419.794 473.118 419.632C473.402 419.47 473.608 419.251 473.736 418.976C473.866 418.697 473.932 418.384 473.932 418.034C473.932 417.685 473.866 417.372 473.736 417.097C473.608 416.821 473.401 416.605 473.114 416.449C472.827 416.29 472.446 416.21 471.972 416.21H470.114V424H469.057ZM476.197 416.21V415.273H482.742V416.21H479.998V424H478.941V416.21H476.197Z" fill="black"/>
<path d="M459 367L429 405.5V420V441L459 462H502.5L523 441V405.5L502.5 367H459Z" stroke="black"/>
<rect x="459.5" y="271.5" width="43" height="94" fill="#F5F5F5" stroke="#D9D9D9"/>
<rect x="459.5" y="462.5" width="39" height="98" fill="#F5F5F5" stroke="#D9D9D9"/>
<path d="M322.83 777.455C322.778 777.023 322.571 776.688 322.207 776.449C321.844 776.21 321.398 776.091 320.869 776.091C320.483 776.091 320.145 776.153 319.855 776.278C319.568 776.403 319.344 776.575 319.182 776.794C319.023 777.013 318.943 777.261 318.943 777.54C318.943 777.773 318.999 777.973 319.109 778.141C319.223 778.305 319.368 778.443 319.544 778.554C319.72 778.662 319.905 778.751 320.098 778.822C320.291 778.891 320.469 778.946 320.631 778.989L321.517 779.227C321.744 779.287 321.997 779.369 322.276 779.474C322.557 779.58 322.825 779.723 323.081 779.905C323.339 780.084 323.553 780.314 323.72 780.595C323.888 780.876 323.972 781.222 323.972 781.631C323.972 782.102 323.848 782.528 323.601 782.909C323.357 783.29 322.999 783.592 322.527 783.817C322.058 784.041 321.489 784.153 320.818 784.153C320.193 784.153 319.652 784.053 319.195 783.851C318.74 783.649 318.382 783.368 318.121 783.007C317.862 782.646 317.716 782.227 317.682 781.75H318.773C318.801 782.08 318.912 782.352 319.105 782.568C319.301 782.781 319.548 782.94 319.847 783.045C320.148 783.148 320.472 783.199 320.818 783.199C321.222 783.199 321.584 783.134 321.905 783.003C322.226 782.869 322.48 782.685 322.668 782.449C322.855 782.21 322.949 781.932 322.949 781.614C322.949 781.324 322.868 781.088 322.706 780.906C322.544 780.724 322.331 780.577 322.067 780.463C321.803 780.349 321.517 780.25 321.21 780.165L320.136 779.858C319.455 779.662 318.915 779.382 318.517 779.018C318.119 778.655 317.92 778.179 317.92 777.591C317.92 777.102 318.053 776.676 318.317 776.312C318.584 775.946 318.942 775.662 319.391 775.46C319.842 775.256 320.347 775.153 320.903 775.153C321.466 775.153 321.966 775.254 322.403 775.456C322.841 775.655 323.188 775.928 323.443 776.274C323.702 776.621 323.838 777.014 323.852 777.455H322.83ZM326.067 784H324.959L328.164 775.273H329.255L332.459 784H331.351L328.743 776.653H328.675L326.067 784ZM326.476 780.591H330.942V781.528H326.476V780.591ZM333.665 784V783.233L336.546 780.08C336.884 779.71 337.162 779.389 337.381 779.116C337.6 778.841 337.762 778.582 337.867 778.341C337.975 778.097 338.029 777.841 338.029 777.574C338.029 777.267 337.955 777.001 337.807 776.777C337.662 776.553 337.463 776.379 337.211 776.257C336.958 776.135 336.674 776.074 336.358 776.074C336.023 776.074 335.73 776.143 335.48 776.283C335.233 776.419 335.042 776.611 334.905 776.858C334.772 777.105 334.705 777.395 334.705 777.727H333.699C333.699 777.216 333.817 776.767 334.053 776.381C334.289 775.994 334.61 775.693 335.016 775.477C335.425 775.261 335.884 775.153 336.392 775.153C336.904 775.153 337.357 775.261 337.752 775.477C338.147 775.693 338.456 775.984 338.681 776.351C338.905 776.717 339.017 777.125 339.017 777.574C339.017 777.895 338.959 778.209 338.843 778.516C338.729 778.82 338.53 779.159 338.246 779.534C337.965 779.906 337.574 780.361 337.074 780.898L335.114 782.994V783.062H339.171V784H333.665Z" fill="black"/>
</svg>
